%TF.GenerationSoftware,KiCad,Pcbnew,9.0.2*%
%TF.CreationDate,2025-06-05T21:12:55+05:30*%
%TF.ProjectId,1 try,31207472-792e-46b6-9963-61645f706362,rev?*%
%TF.SameCoordinates,Original*%
%TF.FileFunction,Copper,L1,Top*%
%TF.FilePolarity,Positive*%
%FSLAX46Y46*%
G04 Gerber Fmt 4.6, Leading zero omitted, Abs format (unit mm)*
G04 Created by KiCad (PCBNEW 9.0.2) date 2025-06-05 21:12:55*
%MOMM*%
%LPD*%
G01*
G04 APERTURE LIST*
%TA.AperFunction,ComponentPad*%
%ADD10R,1.600000X1.600000*%
%TD*%
%TA.AperFunction,ComponentPad*%
%ADD11O,1.600000X1.600000*%
%TD*%
%TA.AperFunction,ComponentPad*%
%ADD12C,2.000000*%
%TD*%
%TA.AperFunction,ComponentPad*%
%ADD13C,1.600000*%
%TD*%
%TA.AperFunction,ComponentPad*%
%ADD14R,2.100000X2.100000*%
%TD*%
%TA.AperFunction,ComponentPad*%
%ADD15C,2.200000*%
%TD*%
%TA.AperFunction,ComponentPad*%
%ADD16R,1.800000X1.800000*%
%TD*%
%TA.AperFunction,ComponentPad*%
%ADD17C,1.800000*%
%TD*%
%TA.AperFunction,ViaPad*%
%ADD18C,0.600000*%
%TD*%
%TA.AperFunction,Conductor*%
%ADD19C,0.200000*%
%TD*%
G04 APERTURE END LIST*
D10*
%TO.P,A1,1,D1/TX*%
%TO.N,unconnected-(A1-D1{slash}TX-Pad1)*%
X128000000Y-106160000D03*
D11*
%TO.P,A1,2,D0/RX*%
%TO.N,unconnected-(A1-D0{slash}RX-Pad2)*%
X128000000Y-103620000D03*
%TO.P,A1,3,~{RESET}*%
%TO.N,unconnected-(A1-~{RESET}-Pad3)*%
X128000000Y-101080000D03*
%TO.P,A1,4,GND*%
%TO.N,GND*%
X128000000Y-98540000D03*
%TO.P,A1,5,D2*%
%TO.N,Net-(A1-D2)*%
X128000000Y-96000000D03*
%TO.P,A1,6,D3*%
%TO.N,Net-(A1-D3)*%
X128000000Y-93460000D03*
%TO.P,A1,7,D4*%
%TO.N,Net-(A1-D4)*%
X128000000Y-90920000D03*
%TO.P,A1,8,D5*%
%TO.N,unconnected-(A1-D5-Pad8)*%
X128000000Y-88380000D03*
%TO.P,A1,9,D6*%
%TO.N,unconnected-(A1-D6-Pad9)*%
X128000000Y-85840000D03*
%TO.P,A1,10,D7*%
%TO.N,unconnected-(A1-D7-Pad10)*%
X128000000Y-83300000D03*
%TO.P,A1,11,D8*%
%TO.N,unconnected-(A1-D8-Pad11)*%
X128000000Y-80760000D03*
%TO.P,A1,12,D9*%
%TO.N,unconnected-(A1-D9-Pad12)*%
X128000000Y-78220000D03*
%TO.P,A1,13,D10*%
%TO.N,unconnected-(A1-D10-Pad13)*%
X128000000Y-75680000D03*
%TO.P,A1,14,D11*%
%TO.N,unconnected-(A1-D11-Pad14)*%
X128000000Y-73140000D03*
%TO.P,A1,15,D12*%
%TO.N,Net-(A1-D12)*%
X128000000Y-70600000D03*
%TO.P,A1,16,D13*%
%TO.N,unconnected-(A1-D13-Pad16)*%
X112760000Y-70600000D03*
%TO.P,A1,17,3V3*%
%TO.N,unconnected-(A1-3V3-Pad17)*%
X112760000Y-73140000D03*
%TO.P,A1,18,AREF*%
%TO.N,unconnected-(A1-AREF-Pad18)*%
X112760000Y-75680000D03*
%TO.P,A1,19,A0*%
%TO.N,unconnected-(A1-A0-Pad19)*%
X112760000Y-78220000D03*
%TO.P,A1,20,A1*%
%TO.N,unconnected-(A1-A1-Pad20)*%
X112760000Y-80760000D03*
%TO.P,A1,21,A2*%
%TO.N,unconnected-(A1-A2-Pad21)*%
X112760000Y-83300000D03*
%TO.P,A1,22,A3*%
%TO.N,unconnected-(A1-A3-Pad22)*%
X112760000Y-85840000D03*
%TO.P,A1,23,A4*%
%TO.N,Net-(A1-A4)*%
X112760000Y-88380000D03*
%TO.P,A1,24,A5*%
%TO.N,Net-(A1-A5)*%
X112760000Y-90920000D03*
%TO.P,A1,25,A6*%
%TO.N,unconnected-(A1-A6-Pad25)*%
X112760000Y-93460000D03*
%TO.P,A1,26,A7*%
%TO.N,unconnected-(A1-A7-Pad26)*%
X112760000Y-96000000D03*
%TO.P,A1,27,+5V*%
%TO.N,+5V*%
X112760000Y-98540000D03*
%TO.P,A1,28,~{RESET}*%
%TO.N,unconnected-(A1-~{RESET}-Pad28)*%
X112760000Y-101080000D03*
%TO.P,A1,29,GND*%
%TO.N,GND*%
X112760000Y-103620000D03*
%TO.P,A1,30,VIN*%
%TO.N,unconnected-(A1-VIN-Pad30)*%
X112760000Y-106160000D03*
%TD*%
D12*
%TO.P,SW3,1,1*%
%TO.N,GND*%
X135486000Y-107696000D03*
X141986000Y-107696000D03*
%TO.P,SW3,2,2*%
%TO.N,Net-(A1-D4)*%
X135486000Y-112196000D03*
X141986000Y-112196000D03*
%TD*%
D13*
%TO.P,R1,1*%
%TO.N,+5V*%
X158040000Y-81244000D03*
%TO.P,R1,2*%
%TO.N,Net-(A1-D2)*%
X160580000Y-81244000D03*
%TD*%
%TO.P,C2,1*%
%TO.N,Net-(A1-D3)*%
X147372000Y-96484000D03*
%TO.P,C2,2*%
%TO.N,GND*%
X152372000Y-96484000D03*
%TD*%
D14*
%TO.P,U2,1*%
%TO.N,GND*%
X90677700Y-66340000D03*
D12*
%TO.P,U2,2*%
%TO.N,+5V*%
X93230000Y-66352300D03*
%TO.P,U2,3,vcc*%
%TO.N,Net-(A1-A5)*%
X95770000Y-66340000D03*
%TO.P,U2,4,gnd*%
%TO.N,Net-(A1-A4)*%
X98310000Y-66340000D03*
%TD*%
D13*
%TO.P,R2,1*%
%TO.N,+5V*%
X158186000Y-96230000D03*
%TO.P,R2,2*%
%TO.N,Net-(A1-D3)*%
X160726000Y-96230000D03*
%TD*%
D14*
%TO.P,U1,1,int*%
%TO.N,unconnected-(U1-int-Pad1)*%
X90420000Y-97420000D03*
D15*
%TO.P,U1,2,SDA*%
%TO.N,Net-(A1-A4)*%
X92960000Y-97420000D03*
%TO.P,U1,3,SCL*%
%TO.N,Net-(A1-A5)*%
X95500000Y-97420000D03*
%TO.P,U1,4,GND*%
%TO.N,GND*%
X98040000Y-97420000D03*
%TO.P,U1,5,VCC*%
%TO.N,+5V*%
X100580000Y-97420000D03*
%TD*%
D16*
%TO.P,PCB-1,1,K*%
%TO.N,GND*%
X154051000Y-68453000D03*
D17*
%TO.P,PCB-1,2,A*%
%TO.N,Net-(D1-A)*%
X154051000Y-65913000D03*
%TD*%
D12*
%TO.P,SW2,1,1*%
%TO.N,GND*%
X134978000Y-95504000D03*
X141478000Y-95504000D03*
%TO.P,SW2,2,2*%
%TO.N,Net-(A1-D3)*%
X134978000Y-100004000D03*
X141478000Y-100004000D03*
%TD*%
D13*
%TO.P,R3,1*%
%TO.N,+5V*%
X158186000Y-109692000D03*
%TO.P,R3,2*%
%TO.N,Net-(A1-D4)*%
X160726000Y-109692000D03*
%TD*%
D12*
%TO.P,SW1,1,1*%
%TO.N,GND*%
X136248000Y-81026000D03*
X142748000Y-81026000D03*
%TO.P,SW1,2,2*%
%TO.N,Net-(A1-D2)*%
X136248000Y-85526000D03*
X142748000Y-85526000D03*
%TD*%
D13*
%TO.P,R4,1*%
%TO.N,Net-(A1-D12)*%
X144780000Y-66040000D03*
%TO.P,R4,2*%
%TO.N,Net-(D1-A)*%
X147320000Y-66040000D03*
%TD*%
%TO.P,C1,1*%
%TO.N,Net-(A1-D2)*%
X147372000Y-81244000D03*
%TO.P,C1,2*%
%TO.N,GND*%
X152372000Y-81244000D03*
%TD*%
%TO.P,C3,1*%
%TO.N,Net-(A1-D4)*%
X147666000Y-109438000D03*
%TO.P,C3,2*%
%TO.N,GND*%
X152666000Y-109438000D03*
%TD*%
D18*
%TO.N,+5V*%
X95250000Y-74930000D03*
%TO.N,Net-(A1-A5)*%
X102108000Y-91440000D03*
%TO.N,Net-(A1-D4)*%
X132715000Y-97155000D03*
%TO.N,Net-(A1-A4)*%
X92456000Y-88265000D03*
%TD*%
D19*
%TO.N,+5V*%
X112891000Y-98540000D02*
X113030000Y-98679000D01*
X112760000Y-98540000D02*
X112891000Y-98540000D01*
X94996000Y-68118300D02*
X93230000Y-66352300D01*
X94996000Y-74676000D02*
X94996000Y-68118300D01*
X95250000Y-74930000D02*
X94996000Y-74676000D01*
%TO.N,Net-(A1-A5)*%
X95770000Y-66340000D02*
X95770000Y-66409000D01*
X102628000Y-90920000D02*
X112760000Y-90920000D01*
X95770000Y-66409000D02*
X95758000Y-66421000D01*
X101480000Y-91440000D02*
X95500000Y-97420000D01*
X102108000Y-91440000D02*
X101480000Y-91440000D01*
X102108000Y-91440000D02*
X102628000Y-90920000D01*
%TO.N,Net-(A1-D12)*%
X140220000Y-70600000D02*
X144780000Y-66040000D01*
X128000000Y-70600000D02*
X140220000Y-70600000D01*
%TO.N,Net-(A1-D2)*%
X128000000Y-96000000D02*
X136248000Y-87752000D01*
X147372000Y-81244000D02*
X147372000Y-83364000D01*
X143074000Y-85526000D02*
X143637000Y-84963000D01*
X148844000Y-84836000D02*
X160528000Y-84836000D01*
X143637000Y-84963000D02*
X143653000Y-84963000D01*
X160528000Y-84836000D02*
X160528000Y-84709000D01*
X160528000Y-84709000D02*
X160580000Y-84657000D01*
X136248000Y-87752000D02*
X136248000Y-85526000D01*
X143653000Y-84963000D02*
X147372000Y-81244000D01*
X136248000Y-85526000D02*
X142748000Y-85526000D01*
X147372000Y-83364000D02*
X148844000Y-84836000D01*
X160580000Y-84657000D02*
X160580000Y-81244000D01*
X142748000Y-85526000D02*
X143074000Y-85526000D01*
%TO.N,Net-(A1-D4)*%
X135486000Y-112196000D02*
X141986000Y-112196000D01*
X132715000Y-109425000D02*
X135486000Y-112196000D01*
X147666000Y-113249000D02*
X147701000Y-113284000D01*
X160909000Y-113284000D02*
X160909000Y-109875000D01*
X132715000Y-97155000D02*
X132715000Y-109425000D01*
X147666000Y-109438000D02*
X147666000Y-113249000D01*
X147701000Y-113284000D02*
X160909000Y-113284000D01*
X144744000Y-109438000D02*
X147666000Y-109438000D01*
X160909000Y-109875000D02*
X160726000Y-109692000D01*
X141986000Y-112196000D02*
X144744000Y-109438000D01*
%TO.N,Net-(A1-A4)*%
X92571000Y-88380000D02*
X92456000Y-88265000D01*
X92960000Y-88769000D02*
X92960000Y-97420000D01*
X112760000Y-88380000D02*
X92571000Y-88380000D01*
X92456000Y-88265000D02*
X92960000Y-88769000D01*
%TO.N,Net-(D1-A)*%
X153924000Y-66040000D02*
X154051000Y-65913000D01*
X147320000Y-66040000D02*
X153924000Y-66040000D01*
%TD*%
%TA.AperFunction,Conductor*%
%TO.N,GND*%
G36*
X162698191Y-61020185D02*
G01*
X162743946Y-61072989D01*
X162755147Y-61123373D01*
X163243792Y-114874373D01*
X163224718Y-114941588D01*
X163172332Y-114987821D01*
X163119797Y-114999500D01*
X79624500Y-114999500D01*
X79557461Y-114979815D01*
X79511706Y-114927011D01*
X79500500Y-114875500D01*
X79500500Y-96322135D01*
X88869500Y-96322135D01*
X88869500Y-98517870D01*
X88869501Y-98517876D01*
X88875908Y-98577483D01*
X88926202Y-98712328D01*
X88926206Y-98712335D01*
X89012452Y-98827544D01*
X89012455Y-98827547D01*
X89127664Y-98913793D01*
X89127671Y-98913797D01*
X89262517Y-98964091D01*
X89262516Y-98964091D01*
X89269444Y-98964835D01*
X89322127Y-98970500D01*
X91517872Y-98970499D01*
X91577483Y-98964091D01*
X91712331Y-98913796D01*
X91827546Y-98827546D01*
X91876477Y-98762182D01*
X91932408Y-98720312D01*
X92002100Y-98715328D01*
X92048627Y-98736176D01*
X92108822Y-98779909D01*
X92121155Y-98788870D01*
X92259741Y-98859483D01*
X92345616Y-98903239D01*
X92345618Y-98903239D01*
X92345621Y-98903241D01*
X92585215Y-98981090D01*
X92834038Y-99020500D01*
X92834039Y-99020500D01*
X93085961Y-99020500D01*
X93085962Y-99020500D01*
X93334785Y-98981090D01*
X93574379Y-98903241D01*
X93798845Y-98788870D01*
X94002656Y-98640793D01*
X94142319Y-98501130D01*
X94203642Y-98467645D01*
X94273334Y-98472629D01*
X94317681Y-98501130D01*
X94457345Y-98640794D01*
X94457350Y-98640798D01*
X94588628Y-98736176D01*
X94661155Y-98788870D01*
X94799741Y-98859483D01*
X94885616Y-98903239D01*
X94885618Y-98903239D01*
X94885621Y-98903241D01*
X95125215Y-98981090D01*
X95374038Y-99020500D01*
X95374039Y-99020500D01*
X95625961Y-99020500D01*
X95625962Y-99020500D01*
X95874785Y-98981090D01*
X96114379Y-98903241D01*
X96338845Y-98788870D01*
X96542656Y-98640793D01*
X96720793Y-98462656D01*
X96868870Y-98258845D01*
X96882051Y-98232975D01*
X96904851Y-98201594D01*
X97557037Y-97549408D01*
X97574075Y-97612993D01*
X97639901Y-97727007D01*
X97732993Y-97820099D01*
X97847007Y-97885925D01*
X97910590Y-97902962D01*
X97099300Y-98714250D01*
X97201416Y-98788442D01*
X97425815Y-98902780D01*
X97665330Y-98980602D01*
X97914072Y-99020000D01*
X98165928Y-99020000D01*
X98414669Y-98980602D01*
X98654184Y-98902780D01*
X98878575Y-98788446D01*
X98878581Y-98788442D01*
X98980697Y-98714250D01*
X98980698Y-98714250D01*
X98169409Y-97902962D01*
X98232993Y-97885925D01*
X98347007Y-97820099D01*
X98440099Y-97727007D01*
X98505925Y-97612993D01*
X98522962Y-97549409D01*
X99175147Y-98201594D01*
X99197950Y-98232979D01*
X99211130Y-98258846D01*
X99359201Y-98462649D01*
X99359205Y-98462654D01*
X99537345Y-98640794D01*
X99537350Y-98640798D01*
X99668628Y-98736176D01*
X99741155Y-98788870D01*
X99879741Y-98859483D01*
X99965616Y-98903239D01*
X99965618Y-98903239D01*
X99965621Y-98903241D01*
X100205215Y-98981090D01*
X100454038Y-99020500D01*
X100454039Y-99020500D01*
X100705961Y-99020500D01*
X100705962Y-99020500D01*
X100954785Y-98981090D01*
X101194379Y-98903241D01*
X101418845Y-98788870D01*
X101622656Y-98640793D01*
X101800793Y-98462656D01*
X101948870Y-98258845D01*
X102063241Y-98034379D01*
X102141090Y-97794785D01*
X102180500Y-97545962D01*
X102180500Y-97294038D01*
X102141090Y-97045215D01*
X102063241Y-96805621D01*
X102063239Y-96805618D01*
X102063239Y-96805616D01*
X101981251Y-96644707D01*
X101948870Y-96581155D01*
X101878282Y-96483999D01*
X101800798Y-96377350D01*
X101800794Y-96377345D01*
X101622654Y-96199205D01*
X101622649Y-96199201D01*
X101418848Y-96051132D01*
X101418847Y-96051131D01*
X101418845Y-96051130D01*
X101288628Y-95984781D01*
X101194383Y-95936760D01*
X100954785Y-95858910D01*
X100921884Y-95853699D01*
X100705962Y-95819500D01*
X100454038Y-95819500D01*
X100397581Y-95828442D01*
X100205214Y-95858910D01*
X99965616Y-95936760D01*
X99741151Y-96051132D01*
X99537350Y-96199201D01*
X99537345Y-96199205D01*
X99359205Y-96377345D01*
X99359201Y-96377350D01*
X99211131Y-96581152D01*
X99197948Y-96607023D01*
X99175147Y-96638404D01*
X98522962Y-97290589D01*
X98505925Y-97227007D01*
X98440099Y-97112993D01*
X98347007Y-97019901D01*
X98232993Y-96954075D01*
X98169408Y-96937037D01*
X98980698Y-96125748D01*
X98878583Y-96051557D01*
X98654184Y-95937219D01*
X98414669Y-95859397D01*
X98219228Y-95828442D01*
X98156093Y-95798513D01*
X98119162Y-95739201D01*
X98120160Y-95669339D01*
X98150943Y-95618290D01*
X101593174Y-92176059D01*
X101654495Y-92142576D01*
X101724187Y-92147560D01*
X101728305Y-92149181D01*
X101823176Y-92188477D01*
X101874503Y-92209737D01*
X102029153Y-92240499D01*
X102029156Y-92240500D01*
X102029158Y-92240500D01*
X102186844Y-92240500D01*
X102186845Y-92240499D01*
X102341497Y-92209737D01*
X102487179Y-92149394D01*
X102618289Y-92061789D01*
X102729789Y-91950289D01*
X102817394Y-91819179D01*
X102877737Y-91673497D01*
X102888317Y-91620309D01*
X102920701Y-91558398D01*
X102981417Y-91523824D01*
X103009934Y-91520500D01*
X111530398Y-91520500D01*
X111597437Y-91540185D01*
X111640883Y-91588205D01*
X111647715Y-91601614D01*
X111768028Y-91767213D01*
X111912786Y-91911971D01*
X112067749Y-92024556D01*
X112078390Y-92032287D01*
X112169840Y-92078883D01*
X112171080Y-92079515D01*
X112221876Y-92127490D01*
X112238671Y-92195311D01*
X112216134Y-92261446D01*
X112171080Y-92300485D01*
X112078386Y-92347715D01*
X111912786Y-92468028D01*
X111768028Y-92612786D01*
X111647715Y-92778386D01*
X111554781Y-92960776D01*
X111491522Y-93155465D01*
X111459500Y-93357648D01*
X111459500Y-93562351D01*
X111491522Y-93764534D01*
X111554781Y-93959223D01*
X111596416Y-94040934D01*
X111633592Y-94113897D01*
X111647715Y-94141613D01*
X111768028Y-94307213D01*
X111912786Y-94451971D01*
X112067749Y-94564556D01*
X112078390Y-94572287D01*
X112169840Y-94618883D01*
X112171080Y-94619515D01*
X112221876Y-94667490D01*
X112238671Y-94735311D01*
X112216134Y-94801446D01*
X112171080Y-94840485D01*
X112078386Y-94887715D01*
X111912786Y-95008028D01*
X111768028Y-95152786D01*
X111647715Y-95318386D01*
X111554781Y-95500776D01*
X111491522Y-95695465D01*
X111459500Y-95897648D01*
X111459500Y-96102351D01*
X111491522Y-96304534D01*
X111554781Y-96499223D01*
X111647714Y-96681612D01*
X111768028Y-96847213D01*
X111912786Y-96991971D01*
X112067749Y-97104556D01*
X112078390Y-97112287D01*
X112169840Y-97158883D01*
X112171080Y-97159515D01*
X112221876Y-97207490D01*
X112238671Y-97275311D01*
X112216134Y-97341446D01*
X112171080Y-97380485D01*
X112078386Y-97427715D01*
X111912786Y-97548028D01*
X111768028Y-97692786D01*
X111647715Y-97858386D01*
X111554781Y-98040776D01*
X111491522Y-98235465D01*
X111459500Y-98437648D01*
X111459500Y-98642351D01*
X111491522Y-98844534D01*
X111554781Y-99039223D01*
X111618691Y-99164653D01*
X111645652Y-99217566D01*
X111647715Y-99221613D01*
X111768028Y-99387213D01*
X111912786Y-99531971D01*
X112013600Y-99605215D01*
X112078390Y-99652287D01*
X112169840Y-99698883D01*
X112171080Y-99699515D01*
X112221876Y-99747490D01*
X112238671Y-99815311D01*
X112216134Y-99881446D01*
X112171080Y-99920485D01*
X112078386Y-99967715D01*
X111912786Y-100088028D01*
X111768028Y-100232786D01*
X111647715Y-100398386D01*
X111554781Y-100580776D01*
X111491522Y-100775465D01*
X111459500Y-100977648D01*
X111459500Y-101182351D01*
X111491522Y-101384534D01*
X111554781Y-101579223D01*
X111647715Y-101761613D01*
X111768028Y-101927213D01*
X111912786Y-102071971D01*
X112067749Y-102184556D01*
X112078390Y-102192287D01*
X112150424Y-102228990D01*
X112171629Y-102239795D01*
X112222425Y-102287770D01*
X112239220Y-102355591D01*
X112216682Y-102421726D01*
X112171629Y-102460765D01*
X112078650Y-102508140D01*
X111913105Y-102628417D01*
X111913104Y-102628417D01*
X111768417Y-102773104D01*
X111768417Y-102773105D01*
X111648140Y-102938650D01*
X111555244Y-103120970D01*
X111492009Y-103315586D01*
X111483391Y-103370000D01*
X112326988Y-103370000D01*
X112294075Y-103427007D01*
X112260000Y-103554174D01*
X112260000Y-103685826D01*
X112294075Y-103812993D01*
X112326988Y-103870000D01*
X111483391Y-103870000D01*
X111492009Y-103924413D01*
X111555244Y-104119029D01*
X111648140Y-104301349D01*
X111768417Y-104466894D01*
X111768417Y-104466895D01*
X111913104Y-104611582D01*
X112078652Y-104731861D01*
X112171628Y-104779234D01*
X112222425Y-104827208D01*
X112239220Y-104895029D01*
X112216683Y-104961164D01*
X112171630Y-105000203D01*
X112078388Y-105047713D01*
X111912786Y-105168028D01*
X111768028Y-105312786D01*
X111647715Y-105478386D01*
X111554781Y-105660776D01*
X111491522Y-105855465D01*
X111459500Y-106057648D01*
X111459500Y-106262351D01*
X111491522Y-106464534D01*
X111554781Y-106659223D01*
X111618691Y-106784653D01*
X111640214Y-106826893D01*
X111647715Y-106841613D01*
X111768028Y-107007213D01*
X111912786Y-107151971D01*
X112055821Y-107255890D01*
X112078390Y-107272287D01*
X112167212Y-107317544D01*
X112260776Y-107365218D01*
X112260778Y-107365218D01*
X112260781Y-107365220D01*
X112365137Y-107399127D01*
X112455465Y-107428477D01*
X112556557Y-107444488D01*
X112657648Y-107460500D01*
X112657649Y-107460500D01*
X112862351Y-107460500D01*
X112862352Y-107460500D01*
X113064534Y-107428477D01*
X113259219Y-107365220D01*
X113441610Y-107272287D01*
X113563841Y-107183482D01*
X113607213Y-107151971D01*
X113607215Y-107151968D01*
X113607219Y-107151966D01*
X113751966Y-107007219D01*
X113751968Y-107007215D01*
X113751971Y-107007213D01*
X113804732Y-106934590D01*
X113872287Y-106841610D01*
X113965220Y-106659219D01*
X114028477Y-106464534D01*
X114060500Y-106262352D01*
X114060500Y-106057648D01*
X114028477Y-105855466D01*
X113965220Y-105660781D01*
X113965218Y-105660778D01*
X113965218Y-105660776D01*
X113931503Y-105594607D01*
X113872287Y-105478390D01*
X113864556Y-105467749D01*
X113751971Y-105312786D01*
X113607213Y-105168028D01*
X113441611Y-105047713D01*
X113348369Y-105000203D01*
X113297574Y-104952229D01*
X113280779Y-104884407D01*
X113303317Y-104818273D01*
X113348371Y-104779234D01*
X113441347Y-104731861D01*
X113606894Y-104611582D01*
X113606895Y-104611582D01*
X113751582Y-104466895D01*
X113751582Y-104466894D01*
X113871859Y-104301349D01*
X113964755Y-104119029D01*
X114027990Y-103924413D01*
X114036609Y-103870000D01*
X113193012Y-103870000D01*
X113225925Y-103812993D01*
X113260000Y-103685826D01*
X113260000Y-103554174D01*
X113225925Y-103427007D01*
X113193012Y-103370000D01*
X114036609Y-103370000D01*
X114027990Y-103315586D01*
X113964755Y-103120970D01*
X113871859Y-102938650D01*
X113751582Y-102773105D01*
X113751582Y-102773104D01*
X113606895Y-102628417D01*
X113441349Y-102508140D01*
X113348370Y-102460765D01*
X113297574Y-102412790D01*
X113280779Y-102344969D01*
X113303316Y-102278835D01*
X113348370Y-102239795D01*
X113348920Y-102239515D01*
X113441610Y-102192287D01*
X113462770Y-102176913D01*
X113607213Y-102071971D01*
X113607215Y-102071968D01*
X113607219Y-102071966D01*
X113751966Y-101927219D01*
X113751968Y-101927215D01*
X113751971Y-101927213D01*
X113804732Y-101854590D01*
X113872287Y-101761610D01*
X113965220Y-101579219D01*
X114028477Y-101384534D01*
X114060500Y-101182352D01*
X114060500Y-100977648D01*
X114028477Y-100775466D01*
X113965220Y-100580781D01*
X113965218Y-100580778D01*
X113965218Y-100580776D01*
X113889546Y-100432263D01*
X113872287Y-100398390D01*
X113841030Y-100355368D01*
X113751971Y-100232786D01*
X113607213Y-100088028D01*
X113441614Y-99967715D01*
X113435006Y-99964348D01*
X113348917Y-99920483D01*
X113298123Y-99872511D01*
X113281328Y-99804690D01*
X113303865Y-99738555D01*
X113348917Y-99699516D01*
X113441610Y-99652287D01*
X113506400Y-99605215D01*
X113607213Y-99531971D01*
X113607215Y-99531968D01*
X113607219Y-99531966D01*
X113751966Y-99387219D01*
X113751968Y-99387215D01*
X113751971Y-99387213D01*
X113804732Y-99314590D01*
X113872287Y-99221610D01*
X113965220Y-99039219D01*
X114028477Y-98844534D01*
X114060500Y-98642352D01*
X114060500Y-98437648D01*
X114046144Y-98347007D01*
X114028477Y-98235465D01*
X113965218Y-98040776D01*
X113931503Y-97974607D01*
X113872287Y-97858390D01*
X113826076Y-97794785D01*
X113751971Y-97692786D01*
X113607213Y-97548028D01*
X113441614Y-97427715D01*
X113426470Y-97419999D01*
X113348917Y-97380483D01*
X113298123Y-97332511D01*
X113281328Y-97264690D01*
X113303865Y-97198555D01*
X113348917Y-97159516D01*
X113441610Y-97112287D01*
X113462770Y-97096913D01*
X113607213Y-96991971D01*
X113607215Y-96991968D01*
X113607219Y-96991966D01*
X113751966Y-96847219D01*
X113751968Y-96847215D01*
X113751971Y-96847213D01*
X113872286Y-96681612D01*
X113965218Y-96499223D01*
X113965218Y-96499222D01*
X113965220Y-96499219D01*
X114028477Y-96304534D01*
X114060500Y-96102352D01*
X114060500Y-95897648D01*
X114035404Y-95739201D01*
X114028477Y-95695465D01*
X113989793Y-95576409D01*
X113965220Y-95500781D01*
X113965218Y-95500778D01*
X113965218Y-95500776D01*
X113929966Y-95431591D01*
X113872287Y-95318390D01*
X113843509Y-95278780D01*
X113751971Y-95152786D01*
X113607213Y-95008028D01*
X113441614Y-94887715D01*
X113435006Y-94884348D01*
X113348917Y-94840483D01*
X113298123Y-94792511D01*
X113281328Y-94724690D01*
X113303865Y-94658555D01*
X113348917Y-94619516D01*
X113441610Y-94572287D01*
X113462770Y-94556913D01*
X113607213Y-94451971D01*
X113607215Y-94451968D01*
X113607219Y-94451966D01*
X113751966Y-94307219D01*
X113751968Y-94307215D01*
X113751971Y-94307213D01*
X113814546Y-94221084D01*
X113872287Y-94141610D01*
X113965220Y-93959219D01*
X114028477Y-93764534D01*
X114060500Y-93562352D01*
X114060500Y-93357648D01*
X114028477Y-93155466D01*
X113965220Y-92960781D01*
X113965218Y-92960778D01*
X113965218Y-92960776D01*
X113931503Y-92894607D01*
X113872287Y-92778390D01*
X113864556Y-92767749D01*
X113751971Y-92612786D01*
X113607213Y-92468028D01*
X113441614Y-92347715D01*
X113435006Y-92344348D01*
X113348917Y-92300483D01*
X113298123Y-92252511D01*
X113281328Y-92184690D01*
X113303865Y-92118555D01*
X113348917Y-92079516D01*
X113441610Y-92032287D01*
X113462770Y-92016913D01*
X113607213Y-91911971D01*
X113607215Y-91911968D01*
X113607219Y-91911966D01*
X113751966Y-91767219D01*
X113751968Y-91767215D01*
X113751971Y-91767213D01*
X113858701Y-91620309D01*
X113872287Y-91601610D01*
X113965220Y-91419219D01*
X114028477Y-91224534D01*
X114060500Y-91022352D01*
X114060500Y-90817648D01*
X114032262Y-90639362D01*
X114028477Y-90615465D01*
X113971296Y-90439481D01*
X113965220Y-90420781D01*
X113965218Y-90420778D01*
X113965218Y-90420776D01*
X113931503Y-90354607D01*
X113872287Y-90238390D01*
X113864556Y-90227749D01*
X113751971Y-90072786D01*
X113607213Y-89928028D01*
X113441614Y-89807715D01*
X113435006Y-89804348D01*
X113348917Y-89760483D01*
X113298123Y-89712511D01*
X113281328Y-89644690D01*
X113303865Y-89578555D01*
X113348917Y-89539516D01*
X113441610Y-89492287D01*
X113462770Y-89476913D01*
X113607213Y-89371971D01*
X113607215Y-89371968D01*
X113607219Y-89371966D01*
X113751966Y-89227219D01*
X113751968Y-89227215D01*
X113751971Y-89227213D01*
X113818797Y-89135233D01*
X113872287Y-89061610D01*
X113965220Y-88879219D01*
X114028477Y-88684534D01*
X114060500Y-88482352D01*
X114060500Y-88277648D01*
X114054970Y-88242732D01*
X114028477Y-88075465D01*
X113998687Y-87983783D01*
X113965220Y-87880781D01*
X113965218Y-87880778D01*
X113965218Y-87880776D01*
X113931503Y-87814607D01*
X113872287Y-87698390D01*
X113832199Y-87643213D01*
X113751971Y-87532786D01*
X113607213Y-87388028D01*
X113441614Y-87267715D01*
X113435006Y-87264348D01*
X113348917Y-87220483D01*
X113298123Y-87172511D01*
X113281328Y-87104690D01*
X113303865Y-87038555D01*
X113348917Y-86999516D01*
X113441610Y-86952287D01*
X113489414Y-86917556D01*
X113607213Y-86831971D01*
X113607215Y-86831968D01*
X113607219Y-86831966D01*
X113751966Y-86687219D01*
X113751968Y-86687215D01*
X113751971Y-86687213D01*
X113804732Y-86614590D01*
X113872287Y-86521610D01*
X113965220Y-86339219D01*
X114028477Y-86144534D01*
X114060500Y-85942352D01*
X114060500Y-85737648D01*
X114028477Y-85535466D01*
X113965220Y-85340781D01*
X113965218Y-85340778D01*
X113965218Y-85340776D01*
X113915333Y-85242873D01*
X113872287Y-85158390D01*
X113806463Y-85067790D01*
X113751971Y-84992786D01*
X113607213Y-84848028D01*
X113441614Y-84727715D01*
X113435006Y-84724348D01*
X113348917Y-84680483D01*
X113298123Y-84632511D01*
X113281328Y-84564690D01*
X113303865Y-84498555D01*
X113348917Y-84459516D01*
X113441610Y-84412287D01*
X113484006Y-84381485D01*
X113607213Y-84291971D01*
X113607215Y-84291968D01*
X113607219Y-84291966D01*
X113751966Y-84147219D01*
X113751968Y-84147215D01*
X113751971Y-84147213D01*
X113840399Y-84025500D01*
X113872287Y-83981610D01*
X113965220Y-83799219D01*
X114028477Y-83604534D01*
X114060500Y-83402352D01*
X114060500Y-83197648D01*
X114028477Y-82995466D01*
X113965220Y-82800781D01*
X113965218Y-82800778D01*
X113965218Y-82800776D01*
X113910677Y-82693735D01*
X113872287Y-82618390D01*
X113864556Y-82607749D01*
X113751971Y-82452786D01*
X113607213Y-82308028D01*
X113441614Y-82187715D01*
X113435006Y-82184348D01*
X113348917Y-82140483D01*
X113298123Y-82092511D01*
X113281328Y-82024690D01*
X113303865Y-81958555D01*
X113348917Y-81919516D01*
X113441610Y-81872287D01*
X113524356Y-81812169D01*
X113607213Y-81751971D01*
X113607215Y-81751968D01*
X113607219Y-81751966D01*
X113751966Y-81607219D01*
X113751968Y-81607215D01*
X113751971Y-81607213D01*
X113837416Y-81489606D01*
X113872287Y-81441610D01*
X113965220Y-81259219D01*
X114028477Y-81064534D01*
X114060500Y-80862352D01*
X114060500Y-80657648D01*
X114060093Y-80655080D01*
X114028477Y-80455465D01*
X113965218Y-80260776D01*
X113931503Y-80194607D01*
X113872287Y-80078390D01*
X113843509Y-80038780D01*
X113751971Y-79912786D01*
X113607213Y-79768028D01*
X113441614Y-79647715D01*
X113418420Y-79635897D01*
X113348917Y-79600483D01*
X113298123Y-79552511D01*
X113281328Y-79484690D01*
X113303865Y-79418555D01*
X113348917Y-79379516D01*
X113441610Y-79332287D01*
X113462770Y-79316913D01*
X113607213Y-79211971D01*
X113607215Y-79211968D01*
X113607219Y-79211966D01*
X113751966Y-79067219D01*
X113751968Y-79067215D01*
X113751971Y-79067213D01*
X113804732Y-78994590D01*
X113872287Y-78901610D01*
X113965220Y-78719219D01*
X114028477Y-78524534D01*
X114060500Y-78322352D01*
X114060500Y-78117648D01*
X114028477Y-77915466D01*
X113965220Y-77720781D01*
X113965218Y-77720778D01*
X113965218Y-77720776D01*
X113931503Y-77654607D01*
X113872287Y-77538390D01*
X113864556Y-77527749D01*
X113751971Y-77372786D01*
X113607213Y-77228028D01*
X113441614Y-77107715D01*
X113435006Y-77104348D01*
X113348917Y-77060483D01*
X113298123Y-77012511D01*
X113281328Y-76944690D01*
X113303865Y-76878555D01*
X113348917Y-76839516D01*
X113441610Y-76792287D01*
X113462770Y-76776913D01*
X113607213Y-76671971D01*
X113607215Y-76671968D01*
X113607219Y-76671966D01*
X113751966Y-76527219D01*
X113751968Y-76527215D01*
X113751971Y-76527213D01*
X113804732Y-76454590D01*
X113872287Y-76361610D01*
X113965220Y-76179219D01*
X114028477Y-75984534D01*
X114060500Y-75782352D01*
X114060500Y-75577648D01*
X114028477Y-75375466D01*
X113965220Y-75180781D01*
X113965218Y-75180778D01*
X113965218Y-75180776D01*
X113931503Y-75114607D01*
X113872287Y-74998390D01*
X113864556Y-74987749D01*
X113751971Y-74832786D01*
X113607213Y-74688028D01*
X113441614Y-74567715D01*
X113408469Y-74550827D01*
X113348917Y-74520483D01*
X113298123Y-74472511D01*
X113281328Y-74404690D01*
X113303865Y-74338555D01*
X113348917Y-74299516D01*
X113441610Y-74252287D01*
X113485216Y-74220606D01*
X113607213Y-74131971D01*
X113607215Y-74131968D01*
X113607219Y-74131966D01*
X113751966Y-73987219D01*
X113751968Y-73987215D01*
X113751971Y-73987213D01*
X113804732Y-73914590D01*
X113872287Y-73821610D01*
X113965220Y-73639219D01*
X114028477Y-73444534D01*
X114060500Y-73242352D01*
X114060500Y-73037648D01*
X114028477Y-72835466D01*
X113965220Y-72640781D01*
X113965218Y-72640778D01*
X113965218Y-72640776D01*
X113931503Y-72574607D01*
X113872287Y-72458390D01*
X113864556Y-72447749D01*
X113751971Y-72292786D01*
X113607213Y-72148028D01*
X113441614Y-72027715D01*
X113435006Y-72024348D01*
X113348917Y-71980483D01*
X113298123Y-71932511D01*
X113281328Y-71864690D01*
X113303865Y-71798555D01*
X113348917Y-71759516D01*
X113441610Y-71712287D01*
X113462770Y-71696913D01*
X113607213Y-71591971D01*
X113607215Y-71591968D01*
X113607219Y-71591966D01*
X113751966Y-71447219D01*
X113751968Y-71447215D01*
X113751971Y-71447213D01*
X113804732Y-71374590D01*
X113872287Y-71281610D01*
X113965220Y-71099219D01*
X114028477Y-70904534D01*
X114060500Y-70702352D01*
X114060500Y-70497648D01*
X126699500Y-70497648D01*
X126699500Y-70702351D01*
X126731522Y-70904534D01*
X126794781Y-71099223D01*
X126887715Y-71281613D01*
X127008028Y-71447213D01*
X127152786Y-71591971D01*
X127307749Y-71704556D01*
X127318390Y-71712287D01*
X127409840Y-71758883D01*
X127411080Y-71759515D01*
X127461876Y-71807490D01*
X127478671Y-71875311D01*
X127456134Y-71941446D01*
X127411080Y-71980485D01*
X127318386Y-72027715D01*
X127152786Y-72148028D01*
X127008028Y-72292786D01*
X126887715Y-72458386D01*
X126794781Y-72640776D01*
X126731522Y-72835465D01*
X126699500Y-73037648D01*
X126699500Y-73242351D01*
X126731522Y-73444534D01*
X126794781Y-73639223D01*
X126887715Y-73821613D01*
X127008028Y-73987213D01*
X127152786Y-74131971D01*
X127274784Y-74220606D01*
X127318390Y-74252287D01*
X127409840Y-74298883D01*
X127411080Y-74299515D01*
X127461876Y-74347490D01*
X127478671Y-74415311D01*
X127456134Y-74481446D01*
X127411080Y-74520485D01*
X127318386Y-74567715D01*
X127152786Y-74688028D01*
X127008028Y-74832786D01*
X126887715Y-74998386D01*
X126794781Y-75180776D01*
X126731522Y-75375465D01*
X126699500Y-75577648D01*
X126699500Y-75782351D01*
X126731522Y-75984534D01*
X126794781Y-76179223D01*
X126887715Y-76361613D01*
X127008028Y-76527213D01*
X127152786Y-76671971D01*
X127307749Y-76784556D01*
X127318390Y-76792287D01*
X127409840Y-76838883D01*
X127411080Y-76839515D01*
X127461876Y-76887490D01*
X127478671Y-76955311D01*
X127456134Y-77021446D01*
X127411080Y-77060485D01*
X127318386Y-77107715D01*
X127152786Y-77228028D01*
X127008028Y-77372786D01*
X126887715Y-77538386D01*
X126794781Y-77720776D01*
X126731522Y-77915465D01*
X126699500Y-78117648D01*
X126699500Y-78322351D01*
X126731522Y-78524534D01*
X126794781Y-78719223D01*
X126887715Y-78901613D01*
X127008028Y-79067213D01*
X127152786Y-79211971D01*
X127307749Y-79324556D01*
X127318390Y-79332287D01*
X127409840Y-79378883D01*
X127411080Y-79379515D01*
X127461876Y-79427490D01*
X127478671Y-79495311D01*
X127456134Y-79561446D01*
X127411080Y-79600485D01*
X127318386Y-79647715D01*
X127152786Y-79768028D01*
X127008028Y-79912786D01*
X126887715Y-80078386D01*
X126794781Y-80260776D01*
X126731522Y-80455465D01*
X126699500Y-80657648D01*
X126699500Y-80862351D01*
X126731522Y-81064534D01*
X126794781Y-81259223D01*
X126887715Y-81441613D01*
X127008028Y-81607213D01*
X127152786Y-81751971D01*
X127264204Y-81832919D01*
X127318390Y-81872287D01*
X127409840Y-81918883D01*
X127411080Y-81919515D01*
X127461876Y-81967490D01*
X127478671Y-82035311D01*
X127456134Y-82101446D01*
X127411080Y-82140485D01*
X127318386Y-82187715D01*
X127152786Y-82308028D01*
X127008028Y-82452786D01*
X126887715Y-82618386D01*
X126794781Y-82800776D01*
X126731522Y-82995465D01*
X126699500Y-83197648D01*
X126699500Y-83402351D01*
X126731522Y-83604534D01*
X126794781Y-83799223D01*
X126887715Y-83981613D01*
X127008028Y-84147213D01*
X127152786Y-84291971D01*
X127275994Y-84381485D01*
X127318390Y-84412287D01*
X127409840Y-84458883D01*
X127411080Y-84459515D01*
X127461876Y-84507490D01*
X127478671Y-84575311D01*
X127456134Y-84641446D01*
X127411080Y-84680485D01*
X127318386Y-84727715D01*
X127152786Y-84848028D01*
X127008028Y-84992786D01*
X126887715Y-85158386D01*
X126794781Y-85340776D01*
X126731522Y-85535465D01*
X126699500Y-85737648D01*
X126699500Y-85942351D01*
X126731522Y-86144534D01*
X126794781Y-86339223D01*
X126887715Y-86521613D01*
X127008028Y-86687213D01*
X127152786Y-86831971D01*
X127270586Y-86917556D01*
X127318390Y-86952287D01*
X127391529Y-86989553D01*
X127411080Y-86999515D01*
X127461876Y-87047490D01*
X127478671Y-87115311D01*
X127456134Y-87181446D01*
X127411080Y-87220485D01*
X127318386Y-87267715D01*
X127152786Y-87388028D01*
X127008028Y-87532786D01*
X126887715Y-87698386D01*
X126794781Y-87880776D01*
X126731522Y-88075465D01*
X126699500Y-88277648D01*
X126699500Y-88482351D01*
X126731522Y-88684534D01*
X126794781Y-88879223D01*
X126846385Y-88980500D01*
X126875408Y-89037461D01*
X126887715Y-89061613D01*
X127008028Y-89227213D01*
X127152786Y-89371971D01*
X127307749Y-89484556D01*
X127318390Y-89492287D01*
X127409840Y-89538883D01*
X127411080Y-89539515D01*
X127461876Y-89587490D01*
X127478671Y-89655311D01*
X127456134Y-89721446D01*
X127411080Y-89760485D01*
X127318386Y-89807715D01*
X127152786Y-89928028D01*
X127008028Y-90072786D01*
X126887715Y-90238386D01*
X126794781Y-90420776D01*
X126731522Y-90615465D01*
X126699500Y-90817648D01*
X126699500Y-91022351D01*
X126731522Y-91224534D01*
X126794781Y-91419223D01*
X126887715Y-91601613D01*
X127008028Y-91767213D01*
X127152786Y-91911971D01*
X127307749Y-92024556D01*
X127318390Y-92032287D01*
X127409840Y-92078883D01*
X127411080Y-92079515D01*
X127461876Y-92127490D01*
X127478671Y-92195311D01*
X127456134Y-92261446D01*
X127411080Y-92300485D01*
X127318386Y-92347715D01*
X127152786Y-92468028D01*
X127008028Y-92612786D01*
X126887715Y-92778386D01*
X126794781Y-92960776D01*
X126731522Y-93155465D01*
X126699500Y-93357648D01*
X126699500Y-93562351D01*
X126731522Y-93764534D01*
X126794781Y-93959223D01*
X126836416Y-94040934D01*
X126873592Y-94113897D01*
X126887715Y-94141613D01*
X127008028Y-94307213D01*
X127152786Y-94451971D01*
X127307749Y-94564556D01*
X127318390Y-94572287D01*
X127409840Y-94618883D01*
X127411080Y-94619515D01*
X127461876Y-94667490D01*
X127478671Y-94735311D01*
X127456134Y-94801446D01*
X127411080Y-94840485D01*
X127318386Y-94887715D01*
X127152786Y-95008028D01*
X127008028Y-95152786D01*
X126887715Y-95318386D01*
X126794781Y-95500776D01*
X126731522Y-95695465D01*
X126699500Y-95897648D01*
X126699500Y-96102351D01*
X126731522Y-96304534D01*
X126794781Y-96499223D01*
X126887714Y-96681612D01*
X127008028Y-96847213D01*
X127152786Y-96991971D01*
X127307749Y-97104556D01*
X127318390Y-97112287D01*
X127390424Y-97148990D01*
X127411629Y-97159795D01*
X127462425Y-97207770D01*
X127479220Y-97275591D01*
X127456682Y-97341726D01*
X127411629Y-97380765D01*
X127318650Y-97428140D01*
X127153105Y-97548417D01*
X127153104Y-97548417D01*
X127008417Y-97693104D01*
X127008417Y-97693105D01*
X126888140Y-97858650D01*
X126795244Y-98040970D01*
X126732009Y-98235586D01*
X126723391Y-98290000D01*
X127566988Y-98290000D01*
X127534075Y-98347007D01*
X127500000Y-98474174D01*
X127500000Y-98605826D01*
X127534075Y-98732993D01*
X127566988Y-98790000D01*
X126723391Y-98790000D01*
X126732009Y-98844413D01*
X126795244Y-99039029D01*
X126888140Y-99221349D01*
X127008417Y-99386894D01*
X127008417Y-99386895D01*
X127153104Y-99531582D01*
X127318652Y-99651861D01*
X127411628Y-99699234D01*
X127462425Y-99747208D01*
X127479220Y-99815029D01*
X127456683Y-99881164D01*
X127411630Y-99920203D01*
X127318388Y-99967713D01*
X127152786Y-100088028D01*
X127008028Y-100232786D01*
X126887715Y-100398386D01*
X126794781Y-100580776D01*
X126731522Y-100775465D01*
X126699500Y-100977648D01*
X126699500Y-101182351D01*
X126731522Y-101384534D01*
X126794781Y-101579223D01*
X126887715Y-101761613D01*
X127008028Y-101927213D01*
X127152786Y-102071971D01*
X127307749Y-102184556D01*
X127318390Y-102192287D01*
X127409840Y-102238883D01*
X127411080Y-102239515D01*
X127461876Y-102287490D01*
X127478671Y-102355311D01*
X127456134Y-102421446D01*
X127411080Y-102460485D01*
X127318386Y-102507715D01*
X127152786Y-102628028D01*
X127008028Y-102772786D01*
X126887715Y-102938386D01*
X126794781Y-103120776D01*
X126731522Y-103315465D01*
X126699500Y-103517648D01*
X126699500Y-103722351D01*
X126731522Y-103924534D01*
X126794781Y-104119223D01*
X126887715Y-104301613D01*
X127008028Y-104467213D01*
X127152784Y-104611969D01*
X127189068Y-104638330D01*
X127231735Y-104693659D01*
X127237715Y-104763273D01*
X127205109Y-104825068D01*
X127144271Y-104859426D01*
X127129440Y-104861938D01*
X127092519Y-104865907D01*
X126957671Y-104916202D01*
X126957664Y-104916206D01*
X126842455Y-105002452D01*
X126842452Y-105002455D01*
X126756206Y-105117664D01*
X126756202Y-105117671D01*
X126705908Y-105252517D01*
X126699501Y-105312116D01*
X126699501Y-105312123D01*
X126699500Y-105312135D01*
X126699500Y-107007870D01*
X126699501Y-107007876D01*
X126705908Y-107067483D01*
X126756202Y-107202328D01*
X126756206Y-107202335D01*
X126842452Y-107317544D01*
X126842455Y-107317547D01*
X126957664Y-107403793D01*
X126957671Y-107403797D01*
X127092517Y-107454091D01*
X127092516Y-107454091D01*
X127099444Y-107454835D01*
X127152127Y-107460500D01*
X128847872Y-107460499D01*
X128907483Y-107454091D01*
X129042331Y-107403796D01*
X129157546Y-107317546D01*
X129243796Y-107202331D01*
X129294091Y-107067483D01*
X129300500Y-107007873D01*
X129300499Y-105312128D01*
X129294091Y-105252517D01*
X129243796Y-105117669D01*
X129243795Y-105117668D01*
X129243793Y-105117664D01*
X129157547Y-105002455D01*
X129157544Y-105002452D01*
X129042335Y-104916206D01*
X129042328Y-104916202D01*
X128907482Y-104865908D01*
X128907483Y-104865908D01*
X128870560Y-104861939D01*
X128806009Y-104835201D01*
X128766160Y-104777809D01*
X128763667Y-104707984D01*
X128799319Y-104647895D01*
X128810930Y-104638331D01*
X128847219Y-104611966D01*
X128991966Y-104467219D01*
X128991968Y-104467215D01*
X128991971Y-104467213D01*
X129044732Y-104394590D01*
X129112287Y-104301610D01*
X129205220Y-104119219D01*
X129268477Y-103924534D01*
X129300500Y-103722352D01*
X129300500Y-103517648D01*
X129286144Y-103427007D01*
X129268477Y-103315465D01*
X129205218Y-103120776D01*
X129112419Y-102938650D01*
X129112287Y-102938390D01*
X129104556Y-102927749D01*
X128991971Y-102772786D01*
X128847213Y-102628028D01*
X128681614Y-102507715D01*
X128675006Y-102504348D01*
X128588917Y-102460483D01*
X128538123Y-102412511D01*
X128521328Y-102344690D01*
X128543865Y-102278555D01*
X128588917Y-102239516D01*
X128681610Y-102192287D01*
X128702770Y-102176913D01*
X128847213Y-102071971D01*
X128847215Y-102071968D01*
X128847219Y-102071966D01*
X128991966Y-101927219D01*
X128991968Y-101927215D01*
X128991971Y-101927213D01*
X129044732Y-101854590D01*
X129112287Y-101761610D01*
X129205220Y-101579219D01*
X129268477Y-101384534D01*
X129300500Y-101182352D01*
X129300500Y-100977648D01*
X129268477Y-100775466D01*
X129205220Y-100580781D01*
X129205218Y-100580778D01*
X129205218Y-100580776D01*
X129129546Y-100432263D01*
X129112287Y-100398390D01*
X129081030Y-100355368D01*
X128991971Y-100232786D01*
X128847213Y-100088028D01*
X128681611Y-99967713D01*
X128588369Y-99920203D01*
X128537574Y-99872229D01*
X128520779Y-99804407D01*
X128543317Y-99738273D01*
X128588371Y-99699234D01*
X128681347Y-99651861D01*
X128846894Y-99531582D01*
X128846895Y-99531582D01*
X128991582Y-99386895D01*
X128991582Y-99386894D01*
X129111859Y-99221349D01*
X129204755Y-99039029D01*
X129267990Y-98844413D01*
X129276609Y-98790000D01*
X128433012Y-98790000D01*
X128465925Y-98732993D01*
X128500000Y-98605826D01*
X128500000Y-98474174D01*
X128465925Y-98347007D01*
X128433012Y-98290000D01*
X129276609Y-98290000D01*
X129267990Y-98235586D01*
X129204755Y-98040970D01*
X129111859Y-97858650D01*
X128991582Y-97693105D01*
X128991582Y-97693104D01*
X128846895Y-97548417D01*
X128681349Y-97428140D01*
X128588370Y-97380765D01*
X128537574Y-97332790D01*
X128520779Y-97264969D01*
X128543316Y-97198835D01*
X128588370Y-97159795D01*
X128588920Y-97159515D01*
X128681610Y-97112287D01*
X128702770Y-97096913D01*
X128731344Y-97076153D01*
X131914500Y-97076153D01*
X131914500Y-97233846D01*
X131945261Y-97388489D01*
X131945264Y-97388501D01*
X132005602Y-97534172D01*
X132005609Y-97534185D01*
X132093602Y-97665874D01*
X132114480Y-97732551D01*
X132114500Y-97734765D01*
X132114500Y-109338330D01*
X132114499Y-109338348D01*
X132114499Y-109504054D01*
X132114498Y-109504054D01*
X132114499Y-109504057D01*
X132155423Y-109656785D01*
X132162928Y-109669784D01*
X132234477Y-109793712D01*
X132234481Y-109793717D01*
X132353349Y-109912585D01*
X132353355Y-109912590D01*
X134033200Y-111592435D01*
X134066685Y-111653758D01*
X134063450Y-111718433D01*
X134022447Y-111844628D01*
X133985500Y-112077902D01*
X133985500Y-112314097D01*
X134022446Y-112547368D01*
X134095433Y-112771996D01*
X134202657Y-112982433D01*
X134341483Y-113173510D01*
X134508490Y-113340517D01*
X134699567Y-113479343D01*
X134798991Y-113530002D01*
X134910003Y-113586566D01*
X134910005Y-113586566D01*
X134910008Y-113586568D01*
X135030412Y-113625689D01*
X135134631Y-113659553D01*
X135367903Y-113696500D01*
X135367908Y-113696500D01*
X135604097Y-113696500D01*
X135837368Y-113659553D01*
X135858410Y-113652716D01*
X136061992Y-113586568D01*
X136272433Y-113479343D01*
X136463510Y-113340517D01*
X136630517Y-113173510D01*
X136769343Y-112982433D01*
X136829583Y-112864204D01*
X136877558Y-112813409D01*
X136940068Y-112796500D01*
X140531932Y-112796500D01*
X140598971Y-112816185D01*
X140642416Y-112864203D01*
X140702657Y-112982433D01*
X140841483Y-113173510D01*
X141008490Y-113340517D01*
X141199567Y-113479343D01*
X141298991Y-113530002D01*
X141410003Y-113586566D01*
X141410005Y-113586566D01*
X141410008Y-113586568D01*
X141530412Y-113625689D01*
X141634631Y-113659553D01*
X141867903Y-113696500D01*
X141867908Y-113696500D01*
X142104097Y-113696500D01*
X142337368Y-113659553D01*
X142358410Y-113652716D01*
X142561992Y-113586568D01*
X142772433Y-113479343D01*
X142963510Y-113340517D01*
X143130517Y-113173510D01*
X143269343Y-112982433D01*
X143376568Y-112771992D01*
X143449553Y-112547368D01*
X143486500Y-112314097D01*
X143486500Y-112077902D01*
X143449553Y-111844635D01*
X143449553Y-111844632D01*
X143408547Y-111718433D01*
X143406553Y-111648593D01*
X143438796Y-111592437D01*
X144956416Y-110074819D01*
X145017739Y-110041334D01*
X145044097Y-110038500D01*
X146436398Y-110038500D01*
X146503437Y-110058185D01*
X146546883Y-110106205D01*
X146553715Y-110119614D01*
X146674028Y-110285213D01*
X146674034Y-110285219D01*
X146818781Y-110429966D01*
X146984390Y-110550287D01*
X146997793Y-110557116D01*
X147048589Y-110605088D01*
X147065500Y-110667601D01*
X147065500Y-113162330D01*
X147065499Y-113162348D01*
X147065499Y-113328054D01*
X147065498Y-113328054D01*
X147065499Y-113328057D01*
X147106423Y-113480785D01*
X147126630Y-113515784D01*
X147185480Y-113617716D01*
X147220480Y-113652716D01*
X147332284Y-113764520D01*
X147332286Y-113764521D01*
X147332290Y-113764524D01*
X147469209Y-113843573D01*
X147469216Y-113843577D01*
X147581019Y-113873534D01*
X147621942Y-113884500D01*
X147621943Y-113884500D01*
X147621944Y-113884500D01*
X160988055Y-113884500D01*
X160988057Y-113884500D01*
X161140784Y-113843577D01*
X161277716Y-113764520D01*
X161389520Y-113652716D01*
X161468577Y-113515784D01*
X161509500Y-113363057D01*
X161509500Y-110793441D01*
X161529185Y-110726402D01*
X161560614Y-110693123D01*
X161573219Y-110683966D01*
X161717966Y-110539219D01*
X161717968Y-110539215D01*
X161717971Y-110539213D01*
X161831803Y-110382534D01*
X161838287Y-110373610D01*
X161931220Y-110191219D01*
X161994477Y-109996534D01*
X162026500Y-109794352D01*
X162026500Y-109589648D01*
X162018687Y-109540317D01*
X161994477Y-109387465D01*
X161931218Y-109192776D01*
X161866244Y-109065259D01*
X161838287Y-109010390D01*
X161830556Y-108999749D01*
X161717971Y-108844786D01*
X161573213Y-108700028D01*
X161407613Y-108579715D01*
X161407612Y-108579714D01*
X161407610Y-108579713D01*
X161350653Y-108550691D01*
X161225223Y-108486781D01*
X161030534Y-108423522D01*
X160855995Y-108395878D01*
X160828352Y-108391500D01*
X160623648Y-108391500D01*
X160599329Y-108395351D01*
X160421465Y-108423522D01*
X160226776Y-108486781D01*
X160044386Y-108579715D01*
X159878786Y-108700028D01*
X159734028Y-108844786D01*
X159613715Y-109010386D01*
X159566485Y-109103080D01*
X159518510Y-109153876D01*
X159450689Y-109170671D01*
X159384554Y-109148134D01*
X159345515Y-109103080D01*
X159326244Y-109065259D01*
X159298287Y-109010390D01*
X159290556Y-108999749D01*
X159177971Y-108844786D01*
X159033213Y-108700028D01*
X158867613Y-108579715D01*
X158867612Y-108579714D01*
X158867610Y-108579713D01*
X158810653Y-108550691D01*
X158685223Y-108486781D01*
X158490534Y-108423522D01*
X158315995Y-108395878D01*
X158288352Y-108391500D01*
X158083648Y-108391500D01*
X158059329Y-108395351D01*
X157881465Y-108423522D01*
X157686776Y-108486781D01*
X157504386Y-108579715D01*
X157338786Y-108700028D01*
X157194028Y-108844786D01*
X157073715Y-109010386D01*
X156980781Y-109192776D01*
X156917522Y-109387465D01*
X156885500Y-109589648D01*
X156885500Y-109794351D01*
X156917522Y-109996534D01*
X156980781Y-110191223D01*
X157073715Y-110373613D01*
X157194028Y-110539213D01*
X157338786Y-110683971D01*
X157489462Y-110793441D01*
X157504390Y-110804287D01*
X157620607Y-110863503D01*
X157686776Y-110897218D01*
X157686778Y-110897218D01*
X157686781Y-110897220D01*
X157768500Y-110923772D01*
X157881465Y-110960477D01*
X157982557Y-110976488D01*
X158083648Y-110992500D01*
X158083649Y-110992500D01*
X158288351Y-110992500D01*
X158288352Y-110992500D01*
X158490534Y-110960477D01*
X158685219Y-110897220D01*
X158867610Y-110804287D01*
X158966490Y-110732447D01*
X159033213Y-110683971D01*
X159033215Y-110683968D01*
X159033219Y-110683966D01*
X159177966Y-110539219D01*
X159177968Y-110539215D01*
X159177971Y-110539213D01*
X159298284Y-110373614D01*
X159298285Y-110373613D01*
X159298287Y-110373610D01*
X159345516Y-110280917D01*
X159393489Y-110230123D01*
X159461310Y-110213328D01*
X159527445Y-110235865D01*
X159566483Y-110280917D01*
X159610348Y-110367006D01*
X159613715Y-110373614D01*
X159734028Y-110539213D01*
X159878786Y-110683971D01*
X160029462Y-110793441D01*
X160044390Y-110804287D01*
X160226781Y-110897220D01*
X160226783Y-110897220D01*
X160226786Y-110897222D01*
X160231284Y-110899086D01*
X160230432Y-110901140D01*
X160280491Y-110935368D01*
X160307691Y-110999726D01*
X160308500Y-111013864D01*
X160308500Y-112559500D01*
X160288815Y-112626539D01*
X160236011Y-112672294D01*
X160184500Y-112683500D01*
X148390500Y-112683500D01*
X148323461Y-112663815D01*
X148277706Y-112611011D01*
X148266500Y-112559500D01*
X148266500Y-110667601D01*
X148286185Y-110600562D01*
X148334206Y-110557116D01*
X148347610Y-110550287D01*
X148513219Y-110429966D01*
X148657966Y-110285219D01*
X148657968Y-110285215D01*
X148657971Y-110285213D01*
X148710732Y-110212590D01*
X148778287Y-110119610D01*
X148871220Y-109937219D01*
X148934477Y-109742534D01*
X148966500Y-109540352D01*
X148966500Y-109335682D01*
X151366000Y-109335682D01*
X151366000Y-109540317D01*
X151398009Y-109742417D01*
X151461244Y-109937031D01*
X151554141Y-110119350D01*
X151554147Y-110119359D01*
X151586523Y-110163921D01*
X151586524Y-110163922D01*
X152266000Y-109484446D01*
X152266000Y-109490661D01*
X152293259Y-109592394D01*
X152345920Y-109683606D01*
X152420394Y-109758080D01*
X152511606Y-109810741D01*
X152613339Y-109838000D01*
X152619553Y-109838000D01*
X151940076Y-110517474D01*
X151984650Y-110549859D01*
X152166968Y-110642755D01*
X152361582Y-110705990D01*
X152563683Y-110738000D01*
X152768317Y-110738000D01*
X152970417Y-110705990D01*
X153165031Y-110642755D01*
X153347349Y-110549859D01*
X153391921Y-110517474D01*
X152712447Y-109838000D01*
X152718661Y-109838000D01*
X152820394Y-109810741D01*
X152911606Y-109758080D01*
X152986080Y-109683606D01*
X153038741Y-109592394D01*
X153066000Y-109490661D01*
X153066000Y-109484448D01*
X153745474Y-110163922D01*
X153745474Y-110163921D01*
X153777859Y-110119349D01*
X153870755Y-109937031D01*
X153933990Y-109742417D01*
X153966000Y-109540317D01*
X153966000Y-109335682D01*
X153933990Y-109133582D01*
X153870755Y-108938968D01*
X153777859Y-108756650D01*
X153745474Y-108712077D01*
X153745474Y-108712076D01*
X153066000Y-109391551D01*
X153066000Y-109385339D01*
X153038741Y-109283606D01*
X152986080Y-109192394D01*
X152911606Y-109117920D01*
X152820394Y-109065259D01*
X152718661Y-109038000D01*
X152712446Y-109038000D01*
X153391922Y-108358524D01*
X153391921Y-108358523D01*
X153347359Y-108326147D01*
X153347350Y-108326141D01*
X153165031Y-108233244D01*
X152970417Y-108170009D01*
X152768317Y-108138000D01*
X152563683Y-108138000D01*
X152361582Y-108170009D01*
X152166968Y-108233244D01*
X151984644Y-108326143D01*
X151940077Y-108358523D01*
X151940077Y-108358524D01*
X152619554Y-109038000D01*
X152613339Y-109038000D01*
X152511606Y-109065259D01*
X152420394Y-109117920D01*
X152345920Y-109192394D01*
X152293259Y-109283606D01*
X152266000Y-109385339D01*
X152266000Y-109391553D01*
X151586524Y-108712077D01*
X151586523Y-108712077D01*
X151554143Y-108756644D01*
X151461244Y-108938968D01*
X151398009Y-109133582D01*
X151366000Y-109335682D01*
X148966500Y-109335682D01*
X148966500Y-109335648D01*
X148943871Y-109192776D01*
X148934477Y-109133465D01*
X148877296Y-108957481D01*
X148871220Y-108938781D01*
X148871218Y-108938778D01*
X148871218Y-108938776D01*
X148823327Y-108844786D01*
X148778287Y-108756390D01*
X148746092Y-108712077D01*
X148657971Y-108590786D01*
X148513213Y-108446028D01*
X148347613Y-108325715D01*
X148347612Y-108325714D01*
X148347610Y-108325713D01*
X148290653Y-108296691D01*
X148165223Y-108232781D01*
X147970534Y-108169522D01*
X147795995Y-108141878D01*
X147768352Y-108137500D01*
X147563648Y-108137500D01*
X147539329Y-108141351D01*
X147361465Y-108169522D01*
X147166776Y-108232781D01*
X146984386Y-108325715D01*
X146818786Y-108446028D01*
X146674028Y-108590786D01*
X146553715Y-108756385D01*
X146546883Y-108769795D01*
X146498909Y-108820591D01*
X146436398Y-108837500D01*
X144830669Y-108837500D01*
X144830653Y-108837499D01*
X144823057Y-108837499D01*
X144664943Y-108837499D01*
X144585010Y-108858917D01*
X144512216Y-108878422D01*
X144485256Y-108893988D01*
X144485255Y-108893987D01*
X144375287Y-108957477D01*
X144375282Y-108957481D01*
X144263478Y-109069286D01*
X142589563Y-110743200D01*
X142528240Y-110776685D01*
X142463564Y-110773450D01*
X142337370Y-110732447D01*
X142104097Y-110695500D01*
X142104092Y-110695500D01*
X141867908Y-110695500D01*
X141867903Y-110695500D01*
X141634631Y-110732446D01*
X141410003Y-110805433D01*
X141199566Y-110912657D01*
X141090550Y-110991862D01*
X141008490Y-111051483D01*
X141008488Y-111051485D01*
X141008487Y-111051485D01*
X140841485Y-111218487D01*
X140841485Y-111218488D01*
X140841483Y-111218490D01*
X140781862Y-111300550D01*
X140702657Y-111409566D01*
X140642417Y-111527795D01*
X140594442Y-111578591D01*
X140531932Y-111595500D01*
X136940068Y-111595500D01*
X136873029Y-111575815D01*
X136829583Y-111527795D01*
X136769342Y-111409566D01*
X136630517Y-111218490D01*
X136463510Y-111051483D01*
X136272433Y-110912657D01*
X136249830Y-110901140D01*
X136061996Y-110805433D01*
X135837368Y-110732446D01*
X135604097Y-110695500D01*
X135604092Y-110695500D01*
X135367908Y-110695500D01*
X135367903Y-110695500D01*
X135134628Y-110732447D01*
X135008433Y-110773450D01*
X134938592Y-110775445D01*
X134882435Y-110743200D01*
X133351819Y-109212583D01*
X133318334Y-109151260D01*
X133315500Y-109124902D01*
X133315500Y-107577947D01*
X133986000Y-107577947D01*
X133986000Y-107814052D01*
X134022934Y-108047247D01*
X134095897Y-108271802D01*
X134203087Y-108482174D01*
X134263338Y-108565104D01*
X134263340Y-108565105D01*
X134962212Y-107866233D01*
X134973482Y-107908292D01*
X135045890Y-108033708D01*
X135148292Y-108136110D01*
X135273708Y-108208518D01*
X135315765Y-108219787D01*
X134616893Y-108918658D01*
X134699828Y-108978914D01*
X134910197Y-109086102D01*
X135134752Y-109159065D01*
X135134751Y-109159065D01*
X135367948Y-109196000D01*
X135604052Y-109196000D01*
X135837247Y-109159065D01*
X136061802Y-109086102D01*
X136272163Y-108978918D01*
X136272169Y-108978914D01*
X136355104Y-108918658D01*
X136355105Y-108918658D01*
X135656233Y-108219787D01*
X135698292Y-108208518D01*
X135823708Y-108136110D01*
X135926110Y-108033708D01*
X135998518Y-107908292D01*
X136009787Y-107866234D01*
X136708658Y-108565105D01*
X136708658Y-108565104D01*
X136768914Y-108482169D01*
X136768918Y-108482163D01*
X136876102Y-108271802D01*
X136949065Y-108047247D01*
X136986000Y-107814052D01*
X136986000Y-107577947D01*
X140486000Y-107577947D01*
X140486000Y-107814052D01*
X140522934Y-108047247D01*
X140595897Y-108271802D01*
X140703087Y-108482174D01*
X140763338Y-108565104D01*
X140763340Y-108565105D01*
X141462212Y-107866233D01*
X141473482Y-107908292D01*
X141545890Y-108033708D01*
X141648292Y-108136110D01*
X141773708Y-108208518D01*
X141815765Y-108219787D01*
X141116893Y-108918658D01*
X141199828Y-108978914D01*
X141410197Y-109086102D01*
X141634752Y-109159065D01*
X141634751Y-109159065D01*
X141867948Y-109196000D01*
X142104052Y-109196000D01*
X142337247Y-109159065D01*
X142561802Y-109086102D01*
X142772163Y-108978918D01*
X142772169Y-108978914D01*
X142855104Y-108918658D01*
X142855105Y-108918658D01*
X142156233Y-108219787D01*
X142198292Y-108208518D01*
X142323708Y-108136110D01*
X142426110Y-108033708D01*
X142498518Y-107908292D01*
X142509787Y-107866234D01*
X143208658Y-108565105D01*
X143208658Y-108565104D01*
X143268914Y-108482169D01*
X143268918Y-108482163D01*
X143376102Y-108271802D01*
X143449065Y-108047247D01*
X143486000Y-107814052D01*
X143486000Y-107577947D01*
X143449065Y-107344752D01*
X143376102Y-107120197D01*
X143268914Y-106909828D01*
X143208658Y-106826894D01*
X143208658Y-106826893D01*
X142509787Y-107525765D01*
X142498518Y-107483708D01*
X142426110Y-107358292D01*
X142323708Y-107255890D01*
X142198292Y-107183482D01*
X142156234Y-107172212D01*
X142855105Y-106473340D01*
X142855104Y-106473338D01*
X142772174Y-106413087D01*
X142561802Y-106305897D01*
X142337247Y-106232934D01*
X142337248Y-106232934D01*
X142104052Y-106196000D01*
X141867948Y-106196000D01*
X141634752Y-106232934D01*
X141410197Y-106305897D01*
X141199830Y-106413084D01*
X141116894Y-106473340D01*
X141815766Y-107172212D01*
X141773708Y-107183482D01*
X141648292Y-107255890D01*
X141545890Y-107358292D01*
X141473482Y-107483708D01*
X141462212Y-107525766D01*
X140763340Y-106826894D01*
X140703084Y-106909830D01*
X140595897Y-107120197D01*
X140522934Y-107344752D01*
X140486000Y-107577947D01*
X136986000Y-107577947D01*
X136949065Y-107344752D01*
X136876102Y-107120197D01*
X136768914Y-106909828D01*
X136708658Y-106826894D01*
X136708658Y-106826893D01*
X136009787Y-107525765D01*
X135998518Y-107483708D01*
X135926110Y-107358292D01*
X135823708Y-107255890D01*
X135698292Y-107183482D01*
X135656234Y-107172212D01*
X136355105Y-106473340D01*
X136355104Y-106473339D01*
X136272174Y-106413087D01*
X136061802Y-106305897D01*
X135837247Y-106232934D01*
X135837248Y-106232934D01*
X135604052Y-106196000D01*
X135367948Y-106196000D01*
X135134752Y-106232934D01*
X134910197Y-106305897D01*
X134699830Y-106413084D01*
X134616894Y-106473340D01*
X135315766Y-107172212D01*
X135273708Y-107183482D01*
X135148292Y-107255890D01*
X135045890Y-107358292D01*
X134973482Y-107483708D01*
X134962212Y-107525766D01*
X134263340Y-106826894D01*
X134203084Y-106909830D01*
X134095897Y-107120197D01*
X134022934Y-107344752D01*
X133986000Y-107577947D01*
X133315500Y-107577947D01*
X133315500Y-100525976D01*
X133335185Y-100458937D01*
X133387989Y-100413182D01*
X133457147Y-100403238D01*
X133520703Y-100432263D01*
X133557430Y-100487657D01*
X133587432Y-100579992D01*
X133694657Y-100790433D01*
X133833483Y-100981510D01*
X134000490Y-101148517D01*
X134191567Y-101287343D01*
X134290991Y-101338002D01*
X134402003Y-101394566D01*
X134402005Y-101394566D01*
X134402008Y-101394568D01*
X134522412Y-101433689D01*
X134626631Y-101467553D01*
X134859903Y-101504500D01*
X134859908Y-101504500D01*
X135096097Y-101504500D01*
X135329368Y-101467553D01*
X135553992Y-101394568D01*
X135764433Y-101287343D01*
X135955510Y-101148517D01*
X136122517Y-100981510D01*
X136261343Y-100790433D01*
X136368568Y-100579992D01*
X136441553Y-100355368D01*
X136460969Y-100232781D01*
X136478500Y-100122097D01*
X136478500Y-99885902D01*
X139977500Y-99885902D01*
X139977500Y-100122097D01*
X140014446Y-100355368D01*
X140087433Y-100579996D01*
X140187030Y-100775465D01*
X140194657Y-100790433D01*
X140333483Y-100981510D01*
X140500490Y-101148517D01*
X140691567Y-101287343D01*
X140790991Y-101338002D01*
X140902003Y-101394566D01*
X140902005Y-101394566D01*
X140902008Y-101394568D01*
X141022412Y-101433689D01*
X141126631Y-101467553D01*
X141359903Y-101504500D01*
X141359908Y-101504500D01*
X141596097Y-101504500D01*
X141829368Y-101467553D01*
X142053992Y-101394568D01*
X142264433Y-101287343D01*
X142455510Y-101148517D01*
X142622517Y-100981510D01*
X142761343Y-100790433D01*
X142868568Y-100579992D01*
X142941553Y-100355368D01*
X142960969Y-100232781D01*
X142978500Y-100122097D01*
X142978500Y-99885902D01*
X142941553Y-99652631D01*
X142898569Y-99520342D01*
X142868568Y-99428008D01*
X142868566Y-99428005D01*
X142868566Y-99428003D01*
X142812002Y-99316991D01*
X142761343Y-99217567D01*
X142622517Y-99026490D01*
X142455510Y-98859483D01*
X142264433Y-98720657D01*
X142248092Y-98712331D01*
X142053996Y-98613433D01*
X141829368Y-98540446D01*
X141596097Y-98503500D01*
X141596092Y-98503500D01*
X141359908Y-98503500D01*
X141359903Y-98503500D01*
X141126631Y-98540446D01*
X140902003Y-98613433D01*
X140691566Y-98720657D01*
X140634410Y-98762184D01*
X140500490Y-98859483D01*
X140500488Y-98859485D01*
X140500487Y-98859485D01*
X140333485Y-99026487D01*
X140333485Y-99026488D01*
X140333483Y-99026490D01*
X140273862Y-99108550D01*
X140194657Y-99217566D01*
X140087433Y-99428003D01*
X140014446Y-99652631D01*
X139977500Y-99885902D01*
X136478500Y-99885902D01*
X136441553Y-99652631D01*
X136398569Y-99520342D01*
X136368568Y-99428008D01*
X136368566Y-99428005D01*
X136368566Y-99428003D01*
X136312002Y-99316991D01*
X136261343Y-99217567D01*
X136122517Y-99026490D01*
X135955510Y-98859483D01*
X135764433Y-98720657D01*
X135748092Y-98712331D01*
X135553996Y-98613433D01*
X135329368Y-98540446D01*
X135096097Y-98503500D01*
X135096092Y-98503500D01*
X134859908Y-98503500D01*
X134859903Y-98503500D01*
X134626631Y-98540446D01*
X134402003Y-98613433D01*
X134191566Y-98720657D01*
X134134410Y-98762184D01*
X134000490Y-98859483D01*
X134000488Y-98859485D01*
X134000487Y-98859485D01*
X133833485Y-99026487D01*
X133833485Y-99026488D01*
X133833483Y-99026490D01*
X133773862Y-99108550D01*
X133694657Y-99217566D01*
X133587433Y-99428003D01*
X133557431Y-99520342D01*
X133517993Y-99578017D01*
X133453634Y-99605215D01*
X133384788Y-99593300D01*
X133333312Y-99546056D01*
X133315500Y-99482023D01*
X133315500Y-97734765D01*
X133335185Y-97667726D01*
X133336398Y-97665874D01*
X133424390Y-97534185D01*
X133424390Y-97534184D01*
X133424394Y-97534179D01*
X133484737Y-97388497D01*
X133515500Y-97233842D01*
X133515500Y-97076158D01*
X133515500Y-97076155D01*
X133515499Y-97076153D01*
X133484738Y-96921510D01*
X133484737Y-96921503D01*
X133484735Y-96921498D01*
X133424397Y-96775827D01*
X133424390Y-96775814D01*
X133405999Y-96748290D01*
X133336789Y-96644711D01*
X133336786Y-96644707D01*
X133225292Y-96533213D01*
X133225288Y-96533210D01*
X133094185Y-96445609D01*
X133094172Y-96445602D01*
X132948501Y-96385264D01*
X132948489Y-96385261D01*
X132793845Y-96354500D01*
X132793842Y-96354500D01*
X132636158Y-96354500D01*
X132636155Y-96354500D01*
X132481510Y-96385261D01*
X132481498Y-96385264D01*
X132335827Y-96445602D01*
X132335814Y-96445609D01*
X132204711Y-96533210D01*
X132204707Y-96533213D01*
X132093213Y-96644707D01*
X132093210Y-96644711D01*
X132005609Y-96775814D01*
X132005602Y-96775827D01*
X131945264Y-96921498D01*
X131945261Y-96921510D01*
X131914500Y-97076153D01*
X128731344Y-97076153D01*
X128847213Y-96991971D01*
X128847215Y-96991968D01*
X128847219Y-96991966D01*
X128991966Y-96847219D01*
X128991968Y-96847215D01*
X128991971Y-96847213D01*
X129112286Y-96681612D01*
X129205218Y-96499223D01*
X129205218Y-96499222D01*
X129205220Y-96499219D01*
X129268477Y-96304534D01*
X129300500Y-96102352D01*
X129300500Y-95897648D01*
X129268477Y-95695466D01*
X129263825Y-95681151D01*
X129261832Y-95611312D01*
X129294075Y-95555158D01*
X129463286Y-95385947D01*
X133478000Y-95385947D01*
X133478000Y-95622052D01*
X133514934Y-95855247D01*
X133587897Y-96079802D01*
X133695087Y-96290174D01*
X133755338Y-96373104D01*
X133755340Y-96373105D01*
X134454212Y-95674233D01*
X134465482Y-95716292D01*
X134537890Y-95841708D01*
X134640292Y-95944110D01*
X134765708Y-96016518D01*
X134807765Y-96027787D01*
X134108893Y-96726658D01*
X134191828Y-96786914D01*
X134402197Y-96894102D01*
X134626752Y-96967065D01*
X134626751Y-96967065D01*
X134859948Y-97004000D01*
X135096052Y-97004000D01*
X135329247Y-96967065D01*
X135553802Y-96894102D01*
X135764163Y-96786918D01*
X135764169Y-96786914D01*
X135847104Y-96726658D01*
X135847105Y-96726658D01*
X135148233Y-96027787D01*
X135190292Y-96016518D01*
X135315708Y-95944110D01*
X135418110Y-95841708D01*
X135490518Y-95716292D01*
X135501787Y-95674234D01*
X136200658Y-96373105D01*
X136200658Y-96373104D01*
X136260914Y-96290169D01*
X136260918Y-96290163D01*
X136368102Y-96079802D01*
X136441065Y-95855247D01*
X136478000Y-95622052D01*
X136478000Y-95385947D01*
X139978000Y-95385947D01*
X139978000Y-95622052D01*
X140014934Y-95855247D01*
X140087897Y-96079802D01*
X140195087Y-96290174D01*
X140255338Y-96373104D01*
X140255340Y-96373105D01*
X140954212Y-95674233D01*
X140965482Y-95716292D01*
X141037890Y-95841708D01*
X141140292Y-95944110D01*
X141265708Y-96016518D01*
X141307765Y-96027787D01*
X140608893Y-96726658D01*
X140691828Y-96786914D01*
X140902197Y-96894102D01*
X141126752Y-96967065D01*
X141126751Y-96967065D01*
X141359948Y-97004000D01*
X141596052Y-97004000D01*
X141829247Y-96967065D01*
X142053802Y-96894102D01*
X142264163Y-96786918D01*
X142264169Y-96786914D01*
X142347104Y-96726658D01*
X142347105Y-96726658D01*
X142002095Y-96381648D01*
X146071500Y-96381648D01*
X146071500Y-96586351D01*
X146103522Y-96788534D01*
X146166781Y-96983223D01*
X146214132Y-97076153D01*
X146259585Y-97165359D01*
X146259715Y-97165613D01*
X146380028Y-97331213D01*
X146524786Y-97475971D01*
X146645226Y-97563474D01*
X146690390Y-97596287D01*
X146806607Y-97655503D01*
X146872776Y-97689218D01*
X146872778Y-97689218D01*
X146872781Y-97689220D01*
X146977137Y-97723127D01*
X147067465Y-97752477D01*
X147168557Y-97768488D01*
X147269648Y-97784500D01*
X147269649Y-97784500D01*
X147474351Y-97784500D01*
X147474352Y-97784500D01*
X147676534Y-97752477D01*
X147871219Y-97689220D01*
X148053610Y-97596287D01*
X148146590Y-97528732D01*
X148219213Y-97475971D01*
X148219215Y-97475968D01*
X148219219Y-97475966D01*
X148363966Y-97331219D01*
X148363968Y-97331215D01*
X148363971Y-97331213D01*
X148434711Y-97233846D01*
X148484287Y-97165610D01*
X148577220Y-96983219D01*
X148640477Y-96788534D01*
X148672500Y-96586352D01*
X148672500Y-96381682D01*
X151072000Y-96381682D01*
X151072000Y-96586317D01*
X151104009Y-96788417D01*
X151167244Y-96983031D01*
X151260141Y-97165350D01*
X151260147Y-97165359D01*
X151292523Y-97209921D01*
X151292524Y-97209922D01*
X151972000Y-96530446D01*
X151972000Y-96536661D01*
X151999259Y-96638394D01*
X152051920Y-96729606D01*
X152126394Y-96804080D01*
X152217606Y-96856741D01*
X152319339Y-96884000D01*
X152325553Y-96884000D01*
X151646076Y-97563474D01*
X151690650Y-97595859D01*
X151872968Y-97688755D01*
X152067582Y-97751990D01*
X152269683Y-97784000D01*
X152474317Y-97784000D01*
X152676417Y-97751990D01*
X152871031Y-97688755D01*
X153053349Y-97595859D01*
X153097921Y-97563474D01*
X152418447Y-96884000D01*
X152424661Y-96884000D01*
X152526394Y-96856741D01*
X152617606Y-96804080D01*
X152692080Y-96729606D01*
X152744741Y-96638394D01*
X152772000Y-96536661D01*
X152772000Y-96530447D01*
X153451474Y-97209921D01*
X153483859Y-97165349D01*
X153576755Y-96983031D01*
X153639990Y-96788417D01*
X153672000Y-96586317D01*
X153672000Y-96381682D01*
X153639990Y-96179582D01*
X153633983Y-96161095D01*
X153623115Y-96127648D01*
X156885500Y-96127648D01*
X156885500Y-96332351D01*
X156917522Y-96534534D01*
X156980781Y-96729223D01*
X157035979Y-96837553D01*
X157064792Y-96894102D01*
X157073715Y-96911613D01*
X157194028Y-97077213D01*
X157338786Y-97221971D01*
X157489148Y-97331213D01*
X157504390Y-97342287D01*
X157595090Y-97388501D01*
X157686776Y-97435218D01*
X157686778Y-97435218D01*
X157686781Y-97435220D01*
X157791137Y-97469127D01*
X157881465Y-97498477D01*
X157982557Y-97514488D01*
X158083648Y-97530500D01*
X158083649Y-97530500D01*
X158288351Y-97530500D01*
X158288352Y-97530500D01*
X158490534Y-97498477D01*
X158685219Y-97435220D01*
X158867610Y-97342287D01*
X158974414Y-97264690D01*
X159033213Y-97221971D01*
X159033215Y-97221968D01*
X159033219Y-97221966D01*
X159177966Y-97077219D01*
X159177968Y-97077215D01*
X159177971Y-97077213D01*
X159298284Y-96911614D01*
X159298285Y-96911613D01*
X159298287Y-96911610D01*
X159345516Y-96818917D01*
X159393489Y-96768123D01*
X159461310Y-96751328D01*
X159527445Y-96773865D01*
X159566485Y-96818919D01*
X159613715Y-96911614D01*
X159734028Y-97077213D01*
X159878786Y-97221971D01*
X160029148Y-97331213D01*
X160044390Y-97342287D01*
X160135090Y-97388501D01*
X160226776Y-97435218D01*
X160226778Y-97435218D01*
X160226781Y-97435220D01*
X160331137Y-97469127D01*
X160421465Y-97498477D01*
X160522557Y-97514488D01*
X160623648Y-97530500D01*
X160623649Y-97530500D01*
X160828351Y-97530500D01*
X160828352Y-97530500D01*
X161030534Y-97498477D01*
X161225219Y-97435220D01*
X161407610Y-97342287D01*
X161514414Y-97264690D01*
X161573213Y-97221971D01*
X161573215Y-97221968D01*
X161573219Y-97221966D01*
X161717966Y-97077219D01*
X161717968Y-97077215D01*
X161717971Y-97077213D01*
X161779905Y-96991966D01*
X161838287Y-96911610D01*
X161931220Y-96729219D01*
X161994477Y-96534534D01*
X162026500Y-96332352D01*
X162026500Y-96127648D01*
X162014380Y-96051129D01*
X161994477Y-95925465D01*
X161962952Y-95828442D01*
X161931220Y-95730781D01*
X161931218Y-95730778D01*
X161931218Y-95730776D01*
X161883327Y-95636786D01*
X161838287Y-95548390D01*
X161806036Y-95504000D01*
X161717971Y-95382786D01*
X161573213Y-95238028D01*
X161407613Y-95117715D01*
X161407612Y-95117714D01*
X161407610Y-95117713D01*
X161301977Y-95063890D01*
X161225223Y-95024781D01*
X161030534Y-94961522D01*
X160855995Y-94933878D01*
X160828352Y-94929500D01*
X160623648Y-94929500D01*
X160599329Y-94933351D01*
X160421465Y-94961522D01*
X160226776Y-95024781D01*
X160044386Y-95117715D01*
X159878786Y-95238028D01*
X159734028Y-95382786D01*
X159613715Y-95548386D01*
X159566485Y-95641080D01*
X159518510Y-95691876D01*
X159450689Y-95708671D01*
X159384554Y-95686134D01*
X159345515Y-95641080D01*
X159301734Y-95555156D01*
X159298287Y-95548390D01*
X159266036Y-95504000D01*
X159177971Y-95382786D01*
X159033213Y-95238028D01*
X158867613Y-95117715D01*
X158867612Y-95117714D01*
X158867610Y-95117713D01*
X158761977Y-95063890D01*
X158685223Y-95024781D01*
X158490534Y-94961522D01*
X158315995Y-94933878D01*
X158288352Y-94929500D01*
X158083648Y-94929500D01*
X158059329Y-94933351D01*
X157881465Y-94961522D01*
X157686776Y-95024781D01*
X157504386Y-95117715D01*
X157338786Y-95238028D01*
X157194028Y-95382786D01*
X157073715Y-95548386D01*
X156980781Y-95730776D01*
X156917522Y-95925465D01*
X156885500Y-96127648D01*
X153623115Y-96127648D01*
X153576755Y-95984968D01*
X153483859Y-95802650D01*
X153451474Y-95758077D01*
X153451474Y-95758076D01*
X152772000Y-96437551D01*
X152772000Y-96431339D01*
X152744741Y-96329606D01*
X152692080Y-96238394D01*
X152617606Y-96163920D01*
X152526394Y-96111259D01*
X152424661Y-96084000D01*
X152418446Y-96084000D01*
X153097922Y-95404524D01*
X153097921Y-95404523D01*
X153053359Y-95372147D01*
X153053350Y-95372141D01*
X152871031Y-95279244D01*
X152676417Y-95216009D01*
X152474317Y-95184000D01*
X152269683Y-95184000D01*
X152067582Y-95216009D01*
X151872968Y-95279244D01*
X151690644Y-95372143D01*
X151646077Y-95404523D01*
X151646077Y-95404524D01*
X152325554Y-96084000D01*
X152319339Y-96084000D01*
X152217606Y-96111259D01*
X152126394Y-96163920D01*
X152051920Y-96238394D01*
X151999259Y-96329606D01*
X151972000Y-96431339D01*
X151972000Y-96437553D01*
X151292524Y-95758077D01*
X151292523Y-95758077D01*
X151260143Y-95802644D01*
X151167244Y-95984968D01*
X151104009Y-96179582D01*
X151072000Y-96381682D01*
X148672500Y-96381682D01*
X148672500Y-96381648D01*
X148653631Y-96262517D01*
X148640477Y-96179465D01*
X148607449Y-96077816D01*
X148577220Y-95984781D01*
X148577218Y-95984778D01*
X148577218Y-95984776D01*
X148521746Y-95875908D01*
X148484287Y-95802390D01*
X148452092Y-95758077D01*
X148363971Y-95636786D01*
X148219213Y-95492028D01*
X148053613Y-95371715D01*
X148053612Y-95371714D01*
X148053610Y-95371713D01*
X147996653Y-95342691D01*
X147871223Y-95278781D01*
X147676534Y-95215522D01*
X147501995Y-95187878D01*
X147474352Y-95183500D01*
X147269648Y-95183500D01*
X147245329Y-95187351D01*
X147067465Y-95215522D01*
X146872776Y-95278781D01*
X146690386Y-95371715D01*
X146524786Y-95492028D01*
X146380028Y-95636786D01*
X146259715Y-95802386D01*
X146166781Y-95984776D01*
X146103522Y-96179465D01*
X146071500Y-96381648D01*
X142002095Y-96381648D01*
X141648233Y-96027787D01*
X141690292Y-96016518D01*
X141815708Y-95944110D01*
X141918110Y-95841708D01*
X141990518Y-95716292D01*
X142001787Y-95674234D01*
X142700658Y-96373105D01*
X142700659Y-96373104D01*
X142750946Y-96303891D01*
X142750946Y-96303890D01*
X142750947Y-96303889D01*
X142760913Y-96290171D01*
X142760918Y-96290163D01*
X142868102Y-96079802D01*
X142941065Y-95855247D01*
X142978000Y-95622052D01*
X142978000Y-95385947D01*
X142941065Y-95152752D01*
X142868102Y-94928197D01*
X142760914Y-94717828D01*
X142700658Y-94634894D01*
X142700658Y-94634893D01*
X142001787Y-95333765D01*
X141990518Y-95291708D01*
X141918110Y-95166292D01*
X141815708Y-95063890D01*
X141690292Y-94991482D01*
X141648234Y-94980212D01*
X142347105Y-94281340D01*
X142347104Y-94281338D01*
X142264174Y-94221087D01*
X142053802Y-94113897D01*
X141829247Y-94040934D01*
X141829248Y-94040934D01*
X141596052Y-94004000D01*
X141359948Y-94004000D01*
X141126752Y-94040934D01*
X140902197Y-94113897D01*
X140691830Y-94221084D01*
X140608894Y-94281340D01*
X141307766Y-94980212D01*
X141265708Y-94991482D01*
X141140292Y-95063890D01*
X141037890Y-95166292D01*
X140965482Y-95291708D01*
X140954212Y-95333766D01*
X140255340Y-94634894D01*
X140195084Y-94717830D01*
X140087897Y-94928197D01*
X140014934Y-95152752D01*
X139978000Y-95385947D01*
X136478000Y-95385947D01*
X136441065Y-95152752D01*
X136368102Y-94928197D01*
X136260914Y-94717828D01*
X136200658Y-94634894D01*
X136200658Y-94634893D01*
X135501787Y-95333765D01*
X135490518Y-95291708D01*
X135418110Y-95166292D01*
X135315708Y-95063890D01*
X135190292Y-94991482D01*
X135148234Y-94980212D01*
X135847105Y-94281340D01*
X135847104Y-94281339D01*
X135764174Y-94221087D01*
X135553802Y-94113897D01*
X135329247Y-94040934D01*
X135329248Y-94040934D01*
X135096052Y-94004000D01*
X134859948Y-94004000D01*
X134626752Y-94040934D01*
X134402197Y-94113897D01*
X134191830Y-94221084D01*
X134108894Y-94281340D01*
X134807766Y-94980212D01*
X134765708Y-94991482D01*
X134640292Y-95063890D01*
X134537890Y-95166292D01*
X134465482Y-95291708D01*
X134454212Y-95333766D01*
X133755340Y-94634894D01*
X133695084Y-94717830D01*
X133587897Y-94928197D01*
X133514934Y-95152752D01*
X133478000Y-95385947D01*
X129463286Y-95385947D01*
X136606506Y-88242728D01*
X136606511Y-88242724D01*
X136616714Y-88232520D01*
X136616716Y-88232520D01*
X136728520Y-88120716D01*
X136807577Y-87983784D01*
X136848500Y-87831057D01*
X136848500Y-86980067D01*
X136868185Y-86913028D01*
X136916205Y-86869582D01*
X137034433Y-86809343D01*
X137225510Y-86670517D01*
X137392517Y-86503510D01*
X137531343Y-86312433D01*
X137591583Y-86194204D01*
X137639558Y-86143409D01*
X137702068Y-86126500D01*
X141293932Y-86126500D01*
X141360971Y-86146185D01*
X141404416Y-86194203D01*
X141464657Y-86312433D01*
X141603483Y-86503510D01*
X141770490Y-86670517D01*
X141961567Y-86809343D01*
X142060991Y-86860002D01*
X142172003Y-86916566D01*
X142172005Y-86916566D01*
X142172008Y-86916568D01*
X142292412Y-86955689D01*
X142396631Y-86989553D01*
X142629903Y-87026500D01*
X142629908Y-87026500D01*
X142866097Y-87026500D01*
X143099368Y-86989553D01*
X143128563Y-86980067D01*
X143323992Y-86916568D01*
X143534433Y-86809343D01*
X143725510Y-86670517D01*
X143892517Y-86503510D01*
X144031343Y-86312433D01*
X144138568Y-86101992D01*
X144211553Y-85877368D01*
X144248500Y-85644097D01*
X144248500Y-85407909D01*
X144234026Y-85316524D01*
X144232244Y-85305273D01*
X144241198Y-85235983D01*
X144267033Y-85198200D01*
X146559821Y-82905413D01*
X146621142Y-82871930D01*
X146690834Y-82876914D01*
X146746767Y-82918786D01*
X146771184Y-82984250D01*
X146771500Y-82993096D01*
X146771500Y-83277330D01*
X146771499Y-83277348D01*
X146771499Y-83443054D01*
X146771498Y-83443054D01*
X146812423Y-83595785D01*
X146841358Y-83645900D01*
X146841359Y-83645904D01*
X146841360Y-83645904D01*
X146891479Y-83732714D01*
X146891481Y-83732717D01*
X147010349Y-83851585D01*
X147010355Y-83851590D01*
X148359139Y-85200374D01*
X148359149Y-85200385D01*
X148363479Y-85204715D01*
X148363480Y-85204716D01*
X148475284Y-85316520D01*
X148475286Y-85316521D01*
X148475290Y-85316524D01*
X148612209Y-85395573D01*
X148612216Y-85395577D01*
X148712825Y-85422535D01*
X148764942Y-85436500D01*
X148764943Y-85436500D01*
X160607055Y-85436500D01*
X160607057Y-85436500D01*
X160759784Y-85395577D01*
X160896716Y-85316520D01*
X161008520Y-85204716D01*
X161087577Y-85067784D01*
X161127818Y-84917600D01*
X161136617Y-84896358D01*
X161136466Y-84896296D01*
X161139575Y-84888788D01*
X161139574Y-84888788D01*
X161139577Y-84888785D01*
X161180500Y-84736057D01*
X161180500Y-84577943D01*
X161180500Y-82473601D01*
X161200185Y-82406562D01*
X161248206Y-82363116D01*
X161261610Y-82356287D01*
X161427219Y-82235966D01*
X161571966Y-82091219D01*
X161571968Y-82091215D01*
X161571971Y-82091213D01*
X161624732Y-82018590D01*
X161692287Y-81925610D01*
X161785220Y-81743219D01*
X161848477Y-81548534D01*
X161880500Y-81346352D01*
X161880500Y-81141648D01*
X161862183Y-81025999D01*
X161848477Y-80939465D01*
X161807616Y-80813708D01*
X161785220Y-80744781D01*
X161785218Y-80744778D01*
X161785218Y-80744776D01*
X161739515Y-80655080D01*
X161692287Y-80562390D01*
X161660092Y-80518077D01*
X161571971Y-80396786D01*
X161427213Y-80252028D01*
X161261613Y-80131715D01*
X161261612Y-80131714D01*
X161261610Y-80131713D01*
X161204653Y-80102691D01*
X161079223Y-80038781D01*
X160884534Y-79975522D01*
X160709995Y-79947878D01*
X160682352Y-79943500D01*
X160477648Y-79943500D01*
X160453329Y-79947351D01*
X160275465Y-79975522D01*
X160080776Y-80038781D01*
X159898386Y-80131715D01*
X159732786Y-80252028D01*
X159588028Y-80396786D01*
X159467715Y-80562386D01*
X159420485Y-80655080D01*
X159372510Y-80705876D01*
X159304689Y-80722671D01*
X159238554Y-80700134D01*
X159199515Y-80655080D01*
X159198883Y-80653840D01*
X159152287Y-80562390D01*
X159120092Y-80518077D01*
X159031971Y-80396786D01*
X158887213Y-80252028D01*
X158721613Y-80131715D01*
X158721612Y-80131714D01*
X158721610Y-80131713D01*
X158664653Y-80102691D01*
X158539223Y-80038781D01*
X158344534Y-79975522D01*
X158169995Y-79947878D01*
X158142352Y-79943500D01*
X157937648Y-79943500D01*
X157913329Y-79947351D01*
X157735465Y-79975522D01*
X157540776Y-80038781D01*
X157358386Y-80131715D01*
X157192786Y-80252028D01*
X157048028Y-80396786D01*
X156927715Y-80562386D01*
X156834781Y-80744776D01*
X156771522Y-80939465D01*
X156739500Y-81141648D01*
X156739500Y-81346351D01*
X156771522Y-81548534D01*
X156834781Y-81743223D01*
X156898691Y-81868653D01*
X156927585Y-81925359D01*
X156927715Y-81925613D01*
X157048028Y-82091213D01*
X157192786Y-82235971D01*
X157313226Y-82323474D01*
X157358390Y-82356287D01*
X157439499Y-82397614D01*
X157540776Y-82449218D01*
X157540778Y-82449218D01*
X157540781Y-82449220D01*
X157615818Y-82473601D01*
X157735465Y-82512477D01*
X157820845Y-82526000D01*
X157937648Y-82544500D01*
X157937649Y-82544500D01*
X158142351Y-82544500D01*
X158142352Y-82544500D01*
X158344534Y-82512477D01*
X158539219Y-82449220D01*
X158721610Y-82356287D01*
X158869750Y-82248658D01*
X158887213Y-82235971D01*
X158887215Y-82235968D01*
X158887219Y-82235966D01*
X159031966Y-82091219D01*
X159031968Y-82091215D01*
X159031971Y-82091213D01*
X159152284Y-81925614D01*
X159152285Y-81925613D01*
X159152287Y-81925610D01*
X159199516Y-81832917D01*
X159247489Y-81782123D01*
X159315310Y-81765328D01*
X159381445Y-81787865D01*
X159420483Y-81832917D01*
X159452170Y-81895105D01*
X159467715Y-81925614D01*
X159588028Y-82091213D01*
X159588034Y-82091219D01*
X159732781Y-82235966D01*
X159898390Y-82356287D01*
X159911793Y-82363116D01*
X159962589Y-82411088D01*
X159979500Y-82473601D01*
X159979500Y-84111500D01*
X159959815Y-84178539D01*
X159907011Y-84224294D01*
X159855500Y-84235500D01*
X149144097Y-84235500D01*
X149077058Y-84215815D01*
X149056416Y-84199181D01*
X148008819Y-83151584D01*
X147975334Y-83090261D01*
X147972500Y-83063903D01*
X147972500Y-82473601D01*
X147992185Y-82406562D01*
X148040206Y-82363116D01*
X148053610Y-82356287D01*
X148219219Y-82235966D01*
X148363966Y-82091219D01*
X148363968Y-82091215D01*
X148363971Y-82091213D01*
X148416732Y-82018590D01*
X148484287Y-81925610D01*
X148577220Y-81743219D01*
X148640477Y-81548534D01*
X148672500Y-81346352D01*
X148672500Y-81141682D01*
X151072000Y-81141682D01*
X151072000Y-81346317D01*
X151104009Y-81548417D01*
X151167244Y-81743031D01*
X151260141Y-81925350D01*
X151260147Y-81925359D01*
X151292523Y-81969921D01*
X151292524Y-81969922D01*
X151972000Y-81290446D01*
X151972000Y-81296661D01*
X151999259Y-81398394D01*
X152051920Y-81489606D01*
X152126394Y-81564080D01*
X152217606Y-81616741D01*
X152319339Y-81644000D01*
X152325553Y-81644000D01*
X151646076Y-82323474D01*
X151690650Y-82355859D01*
X151872968Y-82448755D01*
X152067582Y-82511990D01*
X152269683Y-82544000D01*
X152474317Y-82544000D01*
X152676417Y-82511990D01*
X152871031Y-82448755D01*
X153053349Y-82355859D01*
X153097921Y-82323474D01*
X152418447Y-81644000D01*
X152424661Y-81644000D01*
X152526394Y-81616741D01*
X152617606Y-81564080D01*
X152692080Y-81489606D01*
X152744741Y-81398394D01*
X152772000Y-81296661D01*
X152772000Y-81290447D01*
X153451474Y-81969921D01*
X153483859Y-81925349D01*
X153576755Y-81743031D01*
X153639990Y-81548417D01*
X153672000Y-81346317D01*
X153672000Y-81141682D01*
X153639990Y-80939582D01*
X153576755Y-80744968D01*
X153483859Y-80562650D01*
X153451474Y-80518077D01*
X153451474Y-80518076D01*
X152772000Y-81197551D01*
X152772000Y-81191339D01*
X152744741Y-81089606D01*
X152692080Y-80998394D01*
X152617606Y-80923920D01*
X152526394Y-80871259D01*
X152424661Y-80844000D01*
X152418446Y-80844000D01*
X153097922Y-80164524D01*
X153097921Y-80164523D01*
X153053359Y-80132147D01*
X153053350Y-80132141D01*
X152871031Y-80039244D01*
X152676417Y-79976009D01*
X152474317Y-79944000D01*
X152269683Y-79944000D01*
X152067582Y-79976009D01*
X151872968Y-80039244D01*
X151690644Y-80132143D01*
X151646077Y-80164523D01*
X151646077Y-80164524D01*
X152325554Y-80844000D01*
X152319339Y-80844000D01*
X152217606Y-80871259D01*
X152126394Y-80923920D01*
X152051920Y-80998394D01*
X151999259Y-81089606D01*
X151972000Y-81191339D01*
X151972000Y-81197553D01*
X151292524Y-80518077D01*
X151292523Y-80518077D01*
X151260143Y-80562644D01*
X151167244Y-80744968D01*
X151104009Y-80939582D01*
X151072000Y-81141682D01*
X148672500Y-81141682D01*
X148672500Y-81141648D01*
X148654183Y-81025999D01*
X148640477Y-80939465D01*
X148599616Y-80813708D01*
X148577220Y-80744781D01*
X148577218Y-80744778D01*
X148577218Y-80744776D01*
X148531515Y-80655080D01*
X148484287Y-80562390D01*
X148452092Y-80518077D01*
X148363971Y-80396786D01*
X148219213Y-80252028D01*
X148053613Y-80131715D01*
X148053612Y-80131714D01*
X148053610Y-80131713D01*
X147996653Y-80102691D01*
X147871223Y-80038781D01*
X147676534Y-79975522D01*
X147501995Y-79947878D01*
X147474352Y-79943500D01*
X147269648Y-79943500D01*
X147245329Y-79947351D01*
X147067465Y-79975522D01*
X146872776Y-80038781D01*
X146690386Y-80131715D01*
X146524786Y-80252028D01*
X146380028Y-80396786D01*
X146259715Y-80562386D01*
X146166781Y-80744776D01*
X146103522Y-80939465D01*
X146071500Y-81141648D01*
X146071500Y-81346351D01*
X146103522Y-81548534D01*
X146108173Y-81562848D01*
X146110165Y-81632690D01*
X146077921Y-81688842D01*
X143591297Y-84175466D01*
X143529974Y-84208951D01*
X143460282Y-84203967D01*
X143447322Y-84198270D01*
X143323999Y-84135434D01*
X143099368Y-84062446D01*
X142866097Y-84025500D01*
X142866092Y-84025500D01*
X142629908Y-84025500D01*
X142629903Y-84025500D01*
X142396631Y-84062446D01*
X142172003Y-84135433D01*
X141961566Y-84242657D01*
X141893699Y-84291966D01*
X141770490Y-84381483D01*
X141770488Y-84381485D01*
X141770487Y-84381485D01*
X141603485Y-84548487D01*
X141603485Y-84548488D01*
X141603483Y-84548490D01*
X141582084Y-84577943D01*
X141464657Y-84739566D01*
X141404417Y-84857795D01*
X141356442Y-84908591D01*
X141293932Y-84925500D01*
X137702068Y-84925500D01*
X137635029Y-84905815D01*
X137591583Y-84857795D01*
X137531343Y-84739567D01*
X137392517Y-84548490D01*
X137225510Y-84381483D01*
X137034433Y-84242657D01*
X136981753Y-84215815D01*
X136823996Y-84135433D01*
X136599368Y-84062446D01*
X136366097Y-84025500D01*
X136366092Y-84025500D01*
X136129908Y-84025500D01*
X136129903Y-84025500D01*
X135896631Y-84062446D01*
X135672003Y-84135433D01*
X135461566Y-84242657D01*
X135393699Y-84291966D01*
X135270490Y-84381483D01*
X135270488Y-84381485D01*
X135270487Y-84381485D01*
X135103485Y-84548487D01*
X135103485Y-84548488D01*
X135103483Y-84548490D01*
X135082084Y-84577943D01*
X134964657Y-84739566D01*
X134857433Y-84950003D01*
X134784446Y-85174631D01*
X134747500Y-85407902D01*
X134747500Y-85644097D01*
X134784446Y-85877368D01*
X134857433Y-86101996D01*
X134964657Y-86312433D01*
X135103483Y-86503510D01*
X135270490Y-86670517D01*
X135413797Y-86774636D01*
X135461568Y-86809344D01*
X135505967Y-86831966D01*
X135579794Y-86869582D01*
X135630590Y-86917556D01*
X135647500Y-86980067D01*
X135647500Y-87451902D01*
X135627815Y-87518941D01*
X135611181Y-87539583D01*
X129512181Y-93638583D01*
X129450858Y-93672068D01*
X129381166Y-93667084D01*
X129325233Y-93625212D01*
X129300816Y-93559748D01*
X129300500Y-93550902D01*
X129300500Y-93357648D01*
X129268477Y-93155465D01*
X129205218Y-92960776D01*
X129171503Y-92894607D01*
X129112287Y-92778390D01*
X129104556Y-92767749D01*
X128991971Y-92612786D01*
X128847213Y-92468028D01*
X128681614Y-92347715D01*
X128675006Y-92344348D01*
X128588917Y-92300483D01*
X128538123Y-92252511D01*
X128521328Y-92184690D01*
X128543865Y-92118555D01*
X128588917Y-92079516D01*
X128681610Y-92032287D01*
X128702770Y-92016913D01*
X128847213Y-91911971D01*
X128847215Y-91911968D01*
X128847219Y-91911966D01*
X128991966Y-91767219D01*
X128991968Y-91767215D01*
X128991971Y-91767213D01*
X129098701Y-91620309D01*
X129112287Y-91601610D01*
X129205220Y-91419219D01*
X129268477Y-91224534D01*
X129300500Y-91022352D01*
X129300500Y-90817648D01*
X129272262Y-90639362D01*
X129268477Y-90615465D01*
X129211296Y-90439481D01*
X129205220Y-90420781D01*
X129205218Y-90420778D01*
X129205218Y-90420776D01*
X129171503Y-90354607D01*
X129112287Y-90238390D01*
X129104556Y-90227749D01*
X128991971Y-90072786D01*
X128847213Y-89928028D01*
X128681614Y-89807715D01*
X128675006Y-89804348D01*
X128588917Y-89760483D01*
X128538123Y-89712511D01*
X128521328Y-89644690D01*
X128543865Y-89578555D01*
X128588917Y-89539516D01*
X128681610Y-89492287D01*
X128702770Y-89476913D01*
X128847213Y-89371971D01*
X128847215Y-89371968D01*
X128847219Y-89371966D01*
X128991966Y-89227219D01*
X128991968Y-89227215D01*
X128991971Y-89227213D01*
X129058797Y-89135233D01*
X129112287Y-89061610D01*
X129205220Y-88879219D01*
X129268477Y-88684534D01*
X129300500Y-88482352D01*
X129300500Y-88277648D01*
X129294970Y-88242732D01*
X129268477Y-88075465D01*
X129238687Y-87983783D01*
X129205220Y-87880781D01*
X129205218Y-87880778D01*
X129205218Y-87880776D01*
X129171503Y-87814607D01*
X129112287Y-87698390D01*
X129072199Y-87643213D01*
X128991971Y-87532786D01*
X128847213Y-87388028D01*
X128681614Y-87267715D01*
X128675006Y-87264348D01*
X128588917Y-87220483D01*
X128538123Y-87172511D01*
X128521328Y-87104690D01*
X128543865Y-87038555D01*
X128588917Y-86999516D01*
X128681610Y-86952287D01*
X128729414Y-86917556D01*
X128847213Y-86831971D01*
X128847215Y-86831968D01*
X128847219Y-86831966D01*
X128991966Y-86687219D01*
X128991968Y-86687215D01*
X128991971Y-86687213D01*
X129044732Y-86614590D01*
X129112287Y-86521610D01*
X129205220Y-86339219D01*
X129268477Y-86144534D01*
X129300500Y-85942352D01*
X129300500Y-85737648D01*
X129268477Y-85535466D01*
X129205220Y-85340781D01*
X129205218Y-85340778D01*
X129205218Y-85340776D01*
X129155333Y-85242873D01*
X129112287Y-85158390D01*
X129046463Y-85067790D01*
X128991971Y-84992786D01*
X128847213Y-84848028D01*
X128681614Y-84727715D01*
X128675006Y-84724348D01*
X128588917Y-84680483D01*
X128538123Y-84632511D01*
X128521328Y-84564690D01*
X128543865Y-84498555D01*
X128588917Y-84459516D01*
X128681610Y-84412287D01*
X128724006Y-84381485D01*
X128847213Y-84291971D01*
X128847215Y-84291968D01*
X128847219Y-84291966D01*
X128991966Y-84147219D01*
X128991968Y-84147215D01*
X128991971Y-84147213D01*
X129080399Y-84025500D01*
X129112287Y-83981610D01*
X129205220Y-83799219D01*
X129268477Y-83604534D01*
X129300500Y-83402352D01*
X129300500Y-83197648D01*
X129268477Y-82995466D01*
X129205220Y-82800781D01*
X129205218Y-82800778D01*
X129205218Y-82800776D01*
X129150677Y-82693735D01*
X129112287Y-82618390D01*
X129104556Y-82607749D01*
X128991971Y-82452786D01*
X128847217Y-82308032D01*
X128838525Y-82301717D01*
X128681609Y-82187712D01*
X128635546Y-82164242D01*
X128588917Y-82140483D01*
X128538123Y-82092511D01*
X128521328Y-82024690D01*
X128543865Y-81958555D01*
X128588917Y-81919516D01*
X128681610Y-81872287D01*
X128764356Y-81812169D01*
X128847213Y-81751971D01*
X128847215Y-81751968D01*
X128847219Y-81751966D01*
X128991966Y-81607219D01*
X128991968Y-81607215D01*
X128991971Y-81607213D01*
X129077416Y-81489606D01*
X129112287Y-81441610D01*
X129205220Y-81259219D01*
X129268477Y-81064534D01*
X129293278Y-80907947D01*
X134748000Y-80907947D01*
X134748000Y-81144052D01*
X134784934Y-81377247D01*
X134857897Y-81601802D01*
X134965087Y-81812174D01*
X135025338Y-81895104D01*
X135025340Y-81895105D01*
X135724212Y-81196233D01*
X135735482Y-81238292D01*
X135807890Y-81363708D01*
X135910292Y-81466110D01*
X136035708Y-81538518D01*
X136077765Y-81549787D01*
X135378893Y-82248658D01*
X135461828Y-82308914D01*
X135672197Y-82416102D01*
X135896752Y-82489065D01*
X135896751Y-82489065D01*
X136129948Y-82526000D01*
X136366052Y-82526000D01*
X136599247Y-82489065D01*
X136823802Y-82416102D01*
X137034163Y-82308918D01*
X137034169Y-82308914D01*
X137117104Y-82248658D01*
X137117105Y-82248658D01*
X136418233Y-81549787D01*
X136460292Y-81538518D01*
X136585708Y-81466110D01*
X136688110Y-81363708D01*
X136760518Y-81238292D01*
X136771787Y-81196234D01*
X137470658Y-81895105D01*
X137470658Y-81895104D01*
X137530914Y-81812169D01*
X137530918Y-81812163D01*
X137638102Y-81601802D01*
X137711065Y-81377247D01*
X137748000Y-81144052D01*
X137748000Y-80907947D01*
X141248000Y-80907947D01*
X141248000Y-81144052D01*
X141284934Y-81377247D01*
X141357897Y-81601802D01*
X141465087Y-81812174D01*
X141525338Y-81895104D01*
X141525340Y-81895105D01*
X142224212Y-81196233D01*
X142235482Y-81238292D01*
X142307890Y-81363708D01*
X142410292Y-81466110D01*
X142535708Y-81538518D01*
X142577765Y-81549787D01*
X141878893Y-82248658D01*
X141961828Y-82308914D01*
X142172197Y-82416102D01*
X142396752Y-82489065D01*
X142396751Y-82489065D01*
X142629948Y-82526000D01*
X142866052Y-82526000D01*
X143099247Y-82489065D01*
X143323802Y-82416102D01*
X143534163Y-82308918D01*
X143534169Y-82308914D01*
X143617104Y-82248658D01*
X143617105Y-82248658D01*
X142918233Y-81549787D01*
X142960292Y-81538518D01*
X143085708Y-81466110D01*
X143188110Y-81363708D01*
X143260518Y-81238292D01*
X143271787Y-81196234D01*
X143970658Y-81895105D01*
X143970658Y-81895104D01*
X144030914Y-81812169D01*
X144030918Y-81812163D01*
X144138102Y-81601802D01*
X144211065Y-81377247D01*
X144248000Y-81144052D01*
X144248000Y-80907947D01*
X144211065Y-80674752D01*
X144138102Y-80450197D01*
X144030914Y-80239828D01*
X143970658Y-80156894D01*
X143970658Y-80156893D01*
X143271787Y-80855765D01*
X143260518Y-80813708D01*
X143188110Y-80688292D01*
X143085708Y-80585890D01*
X142960292Y-80513482D01*
X142918234Y-80502212D01*
X143617105Y-79803340D01*
X143617104Y-79803338D01*
X143534174Y-79743087D01*
X143323802Y-79635897D01*
X143099247Y-79562934D01*
X143099248Y-79562934D01*
X142866052Y-79526000D01*
X142629948Y-79526000D01*
X142396752Y-79562934D01*
X142172197Y-79635897D01*
X141961830Y-79743084D01*
X141878894Y-79803340D01*
X142577766Y-80502212D01*
X142535708Y-80513482D01*
X142410292Y-80585890D01*
X142307890Y-80688292D01*
X142235482Y-80813708D01*
X142224212Y-80855766D01*
X141525340Y-80156894D01*
X141465084Y-80239830D01*
X141357897Y-80450197D01*
X141284934Y-80674752D01*
X141248000Y-80907947D01*
X137748000Y-80907947D01*
X137711065Y-80674752D01*
X137638102Y-80450197D01*
X137530914Y-80239828D01*
X137470658Y-80156894D01*
X137470658Y-80156893D01*
X136771787Y-80855765D01*
X136760518Y-80813708D01*
X136688110Y-80688292D01*
X136585708Y-80585890D01*
X136460292Y-80513482D01*
X136418234Y-80502212D01*
X137117105Y-79803340D01*
X137117104Y-79803339D01*
X137034174Y-79743087D01*
X136823802Y-79635897D01*
X136599247Y-79562934D01*
X136599248Y-79562934D01*
X136366052Y-79526000D01*
X136129948Y-79526000D01*
X135896752Y-79562934D01*
X135672197Y-79635897D01*
X135461830Y-79743084D01*
X135378894Y-79803340D01*
X136077766Y-80502212D01*
X136035708Y-80513482D01*
X135910292Y-80585890D01*
X135807890Y-80688292D01*
X135735482Y-80813708D01*
X135724212Y-80855766D01*
X135025340Y-80156894D01*
X134965084Y-80239830D01*
X134857897Y-80450197D01*
X134784934Y-80674752D01*
X134748000Y-80907947D01*
X129293278Y-80907947D01*
X129300500Y-80862352D01*
X129300500Y-80657648D01*
X129300093Y-80655080D01*
X129268477Y-80455465D01*
X129205218Y-80260776D01*
X129171503Y-80194607D01*
X129112287Y-80078390D01*
X129083509Y-80038780D01*
X128999743Y-79923484D01*
X128999742Y-79923483D01*
X128991969Y-79912784D01*
X128847213Y-79768028D01*
X128681614Y-79647715D01*
X128658420Y-79635897D01*
X128588917Y-79600483D01*
X128538123Y-79552511D01*
X128521328Y-79484690D01*
X128543865Y-79418555D01*
X128588917Y-79379516D01*
X128681610Y-79332287D01*
X128702770Y-79316913D01*
X128847213Y-79211971D01*
X128847215Y-79211968D01*
X128847219Y-79211966D01*
X128991966Y-79067219D01*
X128991968Y-79067215D01*
X128991971Y-79067213D01*
X129044732Y-78994590D01*
X129112287Y-78901610D01*
X129205220Y-78719219D01*
X129268477Y-78524534D01*
X129300500Y-78322352D01*
X129300500Y-78117648D01*
X129268477Y-77915466D01*
X129205220Y-77720781D01*
X129205218Y-77720778D01*
X129205218Y-77720776D01*
X129171503Y-77654607D01*
X129112287Y-77538390D01*
X129104556Y-77527749D01*
X128991971Y-77372786D01*
X128847213Y-77228028D01*
X128681614Y-77107715D01*
X128675006Y-77104348D01*
X128588917Y-77060483D01*
X128538123Y-77012511D01*
X128521328Y-76944690D01*
X128543865Y-76878555D01*
X128588917Y-76839516D01*
X128681610Y-76792287D01*
X128702770Y-76776913D01*
X128847213Y-76671971D01*
X128847215Y-76671968D01*
X128847219Y-76671966D01*
X128991966Y-76527219D01*
X128991968Y-76527215D01*
X128991971Y-76527213D01*
X129044732Y-76454590D01*
X129112287Y-76361610D01*
X129205220Y-76179219D01*
X129268477Y-75984534D01*
X129300500Y-75782352D01*
X129300500Y-75577648D01*
X129268477Y-75375466D01*
X129205220Y-75180781D01*
X129205218Y-75180778D01*
X129205218Y-75180776D01*
X129171503Y-75114607D01*
X129112287Y-74998390D01*
X129104556Y-74987749D01*
X128991971Y-74832786D01*
X128847213Y-74688028D01*
X128681614Y-74567715D01*
X128648469Y-74550827D01*
X128588917Y-74520483D01*
X128538123Y-74472511D01*
X128521328Y-74404690D01*
X128543865Y-74338555D01*
X128588917Y-74299516D01*
X128681610Y-74252287D01*
X128725216Y-74220606D01*
X128847213Y-74131971D01*
X128847215Y-74131968D01*
X128847219Y-74131966D01*
X128991966Y-73987219D01*
X128991968Y-73987215D01*
X128991971Y-73987213D01*
X129044732Y-73914590D01*
X129112287Y-73821610D01*
X129205220Y-73639219D01*
X129268477Y-73444534D01*
X129300500Y-73242352D01*
X129300500Y-73037648D01*
X129268477Y-72835466D01*
X129205220Y-72640781D01*
X129205218Y-72640778D01*
X129205218Y-72640776D01*
X129171503Y-72574607D01*
X129112287Y-72458390D01*
X129104556Y-72447749D01*
X128991971Y-72292786D01*
X128847213Y-72148028D01*
X128681614Y-72027715D01*
X128675006Y-72024348D01*
X128588917Y-71980483D01*
X128538123Y-71932511D01*
X128521328Y-71864690D01*
X128543865Y-71798555D01*
X128588917Y-71759516D01*
X128681610Y-71712287D01*
X128702770Y-71696913D01*
X128847213Y-71591971D01*
X128847215Y-71591968D01*
X128847219Y-71591966D01*
X128991966Y-71447219D01*
X128991968Y-71447215D01*
X128991971Y-71447213D01*
X129112284Y-71281614D01*
X129112285Y-71281613D01*
X129112287Y-71281610D01*
X129119117Y-71268204D01*
X129167091Y-71217409D01*
X129229602Y-71200500D01*
X140133331Y-71200500D01*
X140133347Y-71200501D01*
X140140943Y-71200501D01*
X140299054Y-71200501D01*
X140299057Y-71200501D01*
X140451785Y-71159577D01*
X140501904Y-71130639D01*
X140588716Y-71080520D01*
X140700520Y-70968716D01*
X140700520Y-70968714D01*
X140710728Y-70958507D01*
X140710730Y-70958504D01*
X144335158Y-67334075D01*
X144396479Y-67300592D01*
X144461151Y-67303825D01*
X144475466Y-67308477D01*
X144677648Y-67340500D01*
X144677649Y-67340500D01*
X144882351Y-67340500D01*
X144882352Y-67340500D01*
X145084534Y-67308477D01*
X145279219Y-67245220D01*
X145461610Y-67152287D01*
X145584682Y-67062871D01*
X145627213Y-67031971D01*
X145627215Y-67031968D01*
X145627219Y-67031966D01*
X145771966Y-66887219D01*
X145771968Y-66887215D01*
X145771971Y-66887213D01*
X145892284Y-66721614D01*
X145892283Y-66721614D01*
X145892287Y-66721610D01*
X145939516Y-66628917D01*
X145987489Y-66578123D01*
X146055310Y-66561328D01*
X146121445Y-66583865D01*
X146160483Y-66628917D01*
X146192304Y-66691368D01*
X146207715Y-66721614D01*
X146328028Y-66887213D01*
X146472786Y-67031971D01*
X146619734Y-67138733D01*
X146638390Y-67152287D01*
X146754607Y-67211503D01*
X146820776Y-67245218D01*
X146820778Y-67245218D01*
X146820781Y-67245220D01*
X146887299Y-67266833D01*
X147015465Y-67308477D01*
X147116557Y-67324488D01*
X147217648Y-67340500D01*
X147217649Y-67340500D01*
X147422351Y-67340500D01*
X147422352Y-67340500D01*
X147624534Y-67308477D01*
X147819219Y-67245220D01*
X148001610Y-67152287D01*
X148124682Y-67062871D01*
X148167213Y-67031971D01*
X148167215Y-67031968D01*
X148167219Y-67031966D01*
X148311966Y-66887219D01*
X148311968Y-66887215D01*
X148311971Y-66887213D01*
X148432284Y-66721614D01*
X148432283Y-66721614D01*
X148432287Y-66721610D01*
X148439117Y-66708204D01*
X148487091Y-66657409D01*
X148549602Y-66640500D01*
X152785265Y-66640500D01*
X152852304Y-66660185D01*
X152885583Y-66691615D01*
X152982752Y-66825359D01*
X153033316Y-66875923D01*
X153066801Y-66937246D01*
X153061817Y-67006938D01*
X153019945Y-67062871D01*
X152988969Y-67079785D01*
X152908918Y-67109643D01*
X152908906Y-67109649D01*
X152793812Y-67195809D01*
X152793809Y-67195812D01*
X152707649Y-67310906D01*
X152707645Y-67310913D01*
X152657403Y-67445620D01*
X152657401Y-67445627D01*
X152651000Y-67505155D01*
X152651000Y-68203000D01*
X153675722Y-68203000D01*
X153631667Y-68279306D01*
X153601000Y-68393756D01*
X153601000Y-68512244D01*
X153631667Y-68626694D01*
X153675722Y-68703000D01*
X152651000Y-68703000D01*
X152651000Y-69400844D01*
X152657401Y-69460372D01*
X152657403Y-69460379D01*
X152707645Y-69595086D01*
X152707649Y-69595093D01*
X152793809Y-69710187D01*
X152793812Y-69710190D01*
X152908906Y-69796350D01*
X152908913Y-69796354D01*
X153043620Y-69846596D01*
X153043627Y-69846598D01*
X153103155Y-69852999D01*
X153103172Y-69853000D01*
X153801000Y-69853000D01*
X153801000Y-68828277D01*
X153877306Y-68872333D01*
X153991756Y-68903000D01*
X154110244Y-68903000D01*
X154224694Y-68872333D01*
X154301000Y-68828277D01*
X154301000Y-69853000D01*
X154998828Y-69853000D01*
X154998844Y-69852999D01*
X155058372Y-69846598D01*
X155058379Y-69846596D01*
X155193086Y-69796354D01*
X155193093Y-69796350D01*
X155308187Y-69710190D01*
X155308190Y-69710187D01*
X155394350Y-69595093D01*
X155394354Y-69595086D01*
X155444596Y-69460379D01*
X155444598Y-69460372D01*
X155450999Y-69400844D01*
X155451000Y-69400827D01*
X155451000Y-68703000D01*
X154426278Y-68703000D01*
X154470333Y-68626694D01*
X154501000Y-68512244D01*
X154501000Y-68393756D01*
X154470333Y-68279306D01*
X154426278Y-68203000D01*
X155451000Y-68203000D01*
X155451000Y-67505172D01*
X155450999Y-67505155D01*
X155444598Y-67445627D01*
X155444596Y-67445620D01*
X155394354Y-67310913D01*
X155394350Y-67310906D01*
X155308190Y-67195812D01*
X155308187Y-67195809D01*
X155193093Y-67109649D01*
X155193087Y-67109646D01*
X155113030Y-67079786D01*
X155057097Y-67037914D01*
X155032680Y-66972450D01*
X155047532Y-66904177D01*
X155068681Y-66875925D01*
X155119242Y-66825365D01*
X155248815Y-66647022D01*
X155348895Y-66450606D01*
X155417015Y-66240951D01*
X155451500Y-66023222D01*
X155451500Y-65802778D01*
X155417015Y-65585049D01*
X155373760Y-65451921D01*
X155348896Y-65375396D01*
X155348895Y-65375393D01*
X155314237Y-65307375D01*
X155248815Y-65178978D01*
X155167702Y-65067335D01*
X155119247Y-65000641D01*
X155119243Y-65000636D01*
X154963363Y-64844756D01*
X154963358Y-64844752D01*
X154785025Y-64715187D01*
X154785024Y-64715186D01*
X154785022Y-64715185D01*
X154722096Y-64683122D01*
X154588606Y-64615104D01*
X154588603Y-64615103D01*
X154378952Y-64546985D01*
X154270086Y-64529742D01*
X154161222Y-64512500D01*
X153940778Y-64512500D01*
X153868201Y-64523995D01*
X153723047Y-64546985D01*
X153513396Y-64615103D01*
X153513393Y-64615104D01*
X153316974Y-64715187D01*
X153138641Y-64844752D01*
X153138636Y-64844756D01*
X152982756Y-65000636D01*
X152982752Y-65000641D01*
X152853187Y-65178974D01*
X152754939Y-65371795D01*
X152706964Y-65422591D01*
X152644454Y-65439500D01*
X148549602Y-65439500D01*
X148482563Y-65419815D01*
X148439117Y-65371795D01*
X148434375Y-65362488D01*
X148432287Y-65358390D01*
X148432285Y-65358387D01*
X148432284Y-65358385D01*
X148311971Y-65192786D01*
X148167213Y-65048028D01*
X148001613Y-64927715D01*
X148001612Y-64927714D01*
X148001610Y-64927713D01*
X147925133Y-64888746D01*
X147819223Y-64834781D01*
X147624534Y-64771522D01*
X147449995Y-64743878D01*
X147422352Y-64739500D01*
X147217648Y-64739500D01*
X147193329Y-64743351D01*
X147015465Y-64771522D01*
X146820776Y-64834781D01*
X146638386Y-64927715D01*
X146472786Y-65048028D01*
X146328028Y-65192786D01*
X146207715Y-65358386D01*
X146160485Y-65451080D01*
X146112510Y-65501876D01*
X146044689Y-65518671D01*
X145978554Y-65496134D01*
X145939515Y-65451080D01*
X145924999Y-65422591D01*
X145892287Y-65358390D01*
X145884556Y-65347749D01*
X145771971Y-65192786D01*
X145627213Y-65048028D01*
X145461613Y-64927715D01*
X145461612Y-64927714D01*
X145461610Y-64927713D01*
X145385133Y-64888746D01*
X145279223Y-64834781D01*
X145084534Y-64771522D01*
X144909995Y-64743878D01*
X144882352Y-64739500D01*
X144677648Y-64739500D01*
X144653329Y-64743351D01*
X144475465Y-64771522D01*
X144280776Y-64834781D01*
X144098386Y-64927715D01*
X143932786Y-65048028D01*
X143788028Y-65192786D01*
X143667715Y-65358386D01*
X143574781Y-65540776D01*
X143511522Y-65735465D01*
X143493018Y-65852300D01*
X143479500Y-65937648D01*
X143479500Y-66142352D01*
X143483878Y-66169995D01*
X143511522Y-66344534D01*
X143516173Y-66358848D01*
X143518165Y-66428690D01*
X143485921Y-66484842D01*
X140007584Y-69963181D01*
X139946261Y-69996666D01*
X139919903Y-69999500D01*
X129229602Y-69999500D01*
X129162563Y-69979815D01*
X129119117Y-69931795D01*
X129112284Y-69918385D01*
X128991971Y-69752786D01*
X128847213Y-69608028D01*
X128681613Y-69487715D01*
X128681612Y-69487714D01*
X128681610Y-69487713D01*
X128624653Y-69458691D01*
X128499223Y-69394781D01*
X128304534Y-69331522D01*
X128129995Y-69303878D01*
X128102352Y-69299500D01*
X127897648Y-69299500D01*
X127873329Y-69303351D01*
X127695465Y-69331522D01*
X127500776Y-69394781D01*
X127318386Y-69487715D01*
X127152786Y-69608028D01*
X127008028Y-69752786D01*
X126887715Y-69918386D01*
X126794781Y-70100776D01*
X126731522Y-70295465D01*
X126699500Y-70497648D01*
X114060500Y-70497648D01*
X114028477Y-70295466D01*
X113965220Y-70100781D01*
X113965218Y-70100778D01*
X113965218Y-70100776D01*
X113931503Y-70034607D01*
X113872287Y-69918390D01*
X113824779Y-69853000D01*
X113751971Y-69752786D01*
X113607213Y-69608028D01*
X113441613Y-69487715D01*
X113441612Y-69487714D01*
X113441610Y-69487713D01*
X113384653Y-69458691D01*
X113259223Y-69394781D01*
X113064534Y-69331522D01*
X112889995Y-69303878D01*
X112862352Y-69299500D01*
X112657648Y-69299500D01*
X112633329Y-69303351D01*
X112455465Y-69331522D01*
X112260776Y-69394781D01*
X112078386Y-69487715D01*
X111912786Y-69608028D01*
X111768028Y-69752786D01*
X111647715Y-69918386D01*
X111554781Y-70100776D01*
X111491522Y-70295465D01*
X111459500Y-70497648D01*
X111459500Y-70702351D01*
X111491522Y-70904534D01*
X111554781Y-71099223D01*
X111647715Y-71281613D01*
X111768028Y-71447213D01*
X111912786Y-71591971D01*
X112067749Y-71704556D01*
X112078390Y-71712287D01*
X112169840Y-71758883D01*
X112171080Y-71759515D01*
X112221876Y-71807490D01*
X112238671Y-71875311D01*
X112216134Y-71941446D01*
X112171080Y-71980485D01*
X112078386Y-72027715D01*
X111912786Y-72148028D01*
X111768028Y-72292786D01*
X111647715Y-72458386D01*
X111554781Y-72640776D01*
X111491522Y-72835465D01*
X111459500Y-73037648D01*
X111459500Y-73242351D01*
X111491522Y-73444534D01*
X111554781Y-73639223D01*
X111647715Y-73821613D01*
X111768028Y-73987213D01*
X111912786Y-74131971D01*
X112034784Y-74220606D01*
X112078390Y-74252287D01*
X112169840Y-74298883D01*
X112171080Y-74299515D01*
X112221876Y-74347490D01*
X112238671Y-74415311D01*
X112216134Y-74481446D01*
X112171080Y-74520485D01*
X112078386Y-74567715D01*
X111912786Y-74688028D01*
X111768028Y-74832786D01*
X111647715Y-74998386D01*
X111554781Y-75180776D01*
X111491522Y-75375465D01*
X111459500Y-75577648D01*
X111459500Y-75782351D01*
X111491522Y-75984534D01*
X111554781Y-76179223D01*
X111647715Y-76361613D01*
X111768028Y-76527213D01*
X111912786Y-76671971D01*
X112067749Y-76784556D01*
X112078390Y-76792287D01*
X112169840Y-76838883D01*
X112171080Y-76839515D01*
X112221876Y-76887490D01*
X112238671Y-76955311D01*
X112216134Y-77021446D01*
X112171080Y-77060485D01*
X112078386Y-77107715D01*
X111912786Y-77228028D01*
X111768028Y-77372786D01*
X111647715Y-77538386D01*
X111554781Y-77720776D01*
X111491522Y-77915465D01*
X111459500Y-78117648D01*
X111459500Y-78322351D01*
X111491522Y-78524534D01*
X111554781Y-78719223D01*
X111647715Y-78901613D01*
X111768028Y-79067213D01*
X111912786Y-79211971D01*
X112067749Y-79324556D01*
X112078390Y-79332287D01*
X112169840Y-79378883D01*
X112171080Y-79379515D01*
X112221876Y-79427490D01*
X112238671Y-79495311D01*
X112216134Y-79561446D01*
X112171080Y-79600485D01*
X112078386Y-79647715D01*
X111912786Y-79768028D01*
X111768028Y-79912786D01*
X111647715Y-80078386D01*
X111554781Y-80260776D01*
X111491522Y-80455465D01*
X111459500Y-80657648D01*
X111459500Y-80862351D01*
X111491522Y-81064534D01*
X111554781Y-81259223D01*
X111647715Y-81441613D01*
X111768028Y-81607213D01*
X111912786Y-81751971D01*
X112024204Y-81832919D01*
X112078390Y-81872287D01*
X112169840Y-81918883D01*
X112171080Y-81919515D01*
X112221876Y-81967490D01*
X112238671Y-82035311D01*
X112216134Y-82101446D01*
X112171080Y-82140485D01*
X112078386Y-82187715D01*
X111912786Y-82308028D01*
X111768028Y-82452786D01*
X111647715Y-82618386D01*
X111554781Y-82800776D01*
X111491522Y-82995465D01*
X111459500Y-83197648D01*
X111459500Y-83402351D01*
X111491522Y-83604534D01*
X111554781Y-83799223D01*
X111647715Y-83981613D01*
X111768028Y-84147213D01*
X111912786Y-84291971D01*
X112035994Y-84381485D01*
X112078390Y-84412287D01*
X112169840Y-84458883D01*
X112171080Y-84459515D01*
X112221876Y-84507490D01*
X112238671Y-84575311D01*
X112216134Y-84641446D01*
X112171080Y-84680485D01*
X112078386Y-84727715D01*
X111912786Y-84848028D01*
X111768028Y-84992786D01*
X111647715Y-85158386D01*
X111554781Y-85340776D01*
X111491522Y-85535465D01*
X111459500Y-85737648D01*
X111459500Y-85942351D01*
X111491522Y-86144534D01*
X111554781Y-86339223D01*
X111647715Y-86521613D01*
X111768028Y-86687213D01*
X111912786Y-86831971D01*
X112030586Y-86917556D01*
X112078390Y-86952287D01*
X112151529Y-86989553D01*
X112171080Y-86999515D01*
X112221876Y-87047490D01*
X112238671Y-87115311D01*
X112216134Y-87181446D01*
X112171080Y-87220485D01*
X112078386Y-87267715D01*
X111912786Y-87388028D01*
X111768028Y-87532786D01*
X111647715Y-87698385D01*
X111640883Y-87711795D01*
X111592909Y-87762591D01*
X111530398Y-87779500D01*
X93153940Y-87779500D01*
X93086901Y-87759815D01*
X93066263Y-87743185D01*
X92966289Y-87643211D01*
X92966288Y-87643210D01*
X92966287Y-87643209D01*
X92835185Y-87555609D01*
X92835172Y-87555602D01*
X92689501Y-87495264D01*
X92689489Y-87495261D01*
X92534845Y-87464500D01*
X92534842Y-87464500D01*
X92377158Y-87464500D01*
X92377155Y-87464500D01*
X92222510Y-87495261D01*
X92222498Y-87495264D01*
X92076827Y-87555602D01*
X92076814Y-87555609D01*
X91945711Y-87643210D01*
X91945707Y-87643213D01*
X91834213Y-87754707D01*
X91834210Y-87754711D01*
X91746609Y-87885814D01*
X91746602Y-87885827D01*
X91686264Y-88031498D01*
X91686261Y-88031510D01*
X91655500Y-88186153D01*
X91655500Y-88343846D01*
X91686261Y-88498489D01*
X91686264Y-88498501D01*
X91746602Y-88644172D01*
X91746609Y-88644185D01*
X91834210Y-88775288D01*
X91834213Y-88775292D01*
X91945707Y-88886786D01*
X91945711Y-88886789D01*
X92076814Y-88974390D01*
X92076827Y-88974397D01*
X92139086Y-89000185D01*
X92222503Y-89034737D01*
X92259690Y-89042134D01*
X92321601Y-89074517D01*
X92356176Y-89135233D01*
X92359500Y-89163751D01*
X92359500Y-95853699D01*
X92339815Y-95920738D01*
X92291795Y-95964184D01*
X92121156Y-96051129D01*
X92121154Y-96051130D01*
X92048626Y-96103824D01*
X91982819Y-96127303D01*
X91914766Y-96111477D01*
X91876477Y-96077818D01*
X91827546Y-96012454D01*
X91827544Y-96012452D01*
X91827543Y-96012451D01*
X91712335Y-95926206D01*
X91712328Y-95926202D01*
X91577482Y-95875908D01*
X91577483Y-95875908D01*
X91517883Y-95869501D01*
X91517881Y-95869500D01*
X91517873Y-95869500D01*
X91517864Y-95869500D01*
X89322129Y-95869500D01*
X89322123Y-95869501D01*
X89262516Y-95875908D01*
X89127671Y-95926202D01*
X89127664Y-95926206D01*
X89012455Y-96012452D01*
X89012452Y-96012455D01*
X88926206Y-96127664D01*
X88926202Y-96127671D01*
X88875908Y-96262517D01*
X88869501Y-96322116D01*
X88869500Y-96322135D01*
X79500500Y-96322135D01*
X79500500Y-65242155D01*
X89127700Y-65242155D01*
X89127700Y-66090000D01*
X90264089Y-66090000D01*
X90224075Y-66159307D01*
X90190000Y-66286474D01*
X90190000Y-66418126D01*
X90224075Y-66545293D01*
X90249887Y-66590000D01*
X89127700Y-66590000D01*
X89127700Y-67437844D01*
X89134101Y-67497372D01*
X89134103Y-67497379D01*
X89184345Y-67632086D01*
X89184349Y-67632093D01*
X89270509Y-67747187D01*
X89270512Y-67747190D01*
X89385606Y-67833350D01*
X89385613Y-67833354D01*
X89520320Y-67883596D01*
X89520327Y-67883598D01*
X89579855Y-67889999D01*
X89579872Y-67890000D01*
X90427700Y-67890000D01*
X90427700Y-66778210D01*
X90497007Y-66818225D01*
X90624174Y-66852300D01*
X90755826Y-66852300D01*
X90882993Y-66818225D01*
X90927700Y-66792413D01*
X90927700Y-67890000D01*
X91775528Y-67890000D01*
X91775544Y-67889999D01*
X91835072Y-67883598D01*
X91835079Y-67883596D01*
X91969786Y-67833354D01*
X91969793Y-67833350D01*
X92084887Y-67747190D01*
X92084890Y-67747187D01*
X92171050Y-67632093D01*
X92171053Y-67632087D01*
X92171077Y-67632025D01*
X92171117Y-67631971D01*
X92175304Y-67624304D01*
X92176405Y-67624905D01*
X92212945Y-67576089D01*
X92278407Y-67551668D01*
X92346681Y-67566516D01*
X92360140Y-67575029D01*
X92443567Y-67635643D01*
X92542991Y-67686302D01*
X92654003Y-67742866D01*
X92654005Y-67742866D01*
X92654008Y-67742868D01*
X92746292Y-67772853D01*
X92878631Y-67815853D01*
X93111903Y-67852800D01*
X93111908Y-67852800D01*
X93348097Y-67852800D01*
X93454126Y-67836005D01*
X93581368Y-67815853D01*
X93707566Y-67774847D01*
X93777404Y-67772853D01*
X93833563Y-67805098D01*
X94359181Y-68330716D01*
X94392666Y-68392039D01*
X94395500Y-68418397D01*
X94395500Y-74589330D01*
X94395499Y-74589348D01*
X94395499Y-74755054D01*
X94395498Y-74755054D01*
X94395499Y-74755057D01*
X94416325Y-74832781D01*
X94436424Y-74907787D01*
X94439533Y-74915293D01*
X94436830Y-74916412D01*
X94449500Y-74963660D01*
X94449500Y-75008846D01*
X94480261Y-75163489D01*
X94480264Y-75163501D01*
X94540602Y-75309172D01*
X94540609Y-75309185D01*
X94628210Y-75440288D01*
X94628213Y-75440292D01*
X94739707Y-75551786D01*
X94739711Y-75551789D01*
X94870814Y-75639390D01*
X94870827Y-75639397D01*
X95016498Y-75699735D01*
X95016503Y-75699737D01*
X95171153Y-75730499D01*
X95171156Y-75730500D01*
X95171158Y-75730500D01*
X95328844Y-75730500D01*
X95328845Y-75730499D01*
X95483497Y-75699737D01*
X95629179Y-75639394D01*
X95760289Y-75551789D01*
X95871789Y-75440289D01*
X95959394Y-75309179D01*
X96019737Y-75163497D01*
X96050500Y-75008842D01*
X96050500Y-74851158D01*
X96050500Y-74851155D01*
X96050499Y-74851153D01*
X96031384Y-74755057D01*
X96019737Y-74696503D01*
X96016227Y-74688028D01*
X95959397Y-74550827D01*
X95959390Y-74550814D01*
X95871789Y-74419711D01*
X95871786Y-74419707D01*
X95760292Y-74308213D01*
X95760288Y-74308210D01*
X95651609Y-74235592D01*
X95606804Y-74181979D01*
X95596500Y-74132490D01*
X95596500Y-68039245D01*
X95596500Y-68039243D01*
X95585072Y-67996593D01*
X95586735Y-67926743D01*
X95625898Y-67868881D01*
X95690127Y-67841377D01*
X95704847Y-67840500D01*
X95888097Y-67840500D01*
X96121368Y-67803553D01*
X96345992Y-67730568D01*
X96556433Y-67623343D01*
X96747510Y-67484517D01*
X96914517Y-67317510D01*
X96939682Y-67282872D01*
X96995011Y-67240207D01*
X97064625Y-67234228D01*
X97126420Y-67266833D01*
X97140315Y-67282870D01*
X97165483Y-67317510D01*
X97332490Y-67484517D01*
X97523567Y-67623343D01*
X97622991Y-67674002D01*
X97734003Y-67730566D01*
X97734005Y-67730566D01*
X97734008Y-67730568D01*
X97798021Y-67751367D01*
X97958631Y-67803553D01*
X98191903Y-67840500D01*
X98191908Y-67840500D01*
X98428097Y-67840500D01*
X98661368Y-67803553D01*
X98885992Y-67730568D01*
X99096433Y-67623343D01*
X99287510Y-67484517D01*
X99454517Y-67317510D01*
X99593343Y-67126433D01*
X99700568Y-66915992D01*
X99773553Y-66691368D01*
X99791489Y-66578123D01*
X99810500Y-66458097D01*
X99810500Y-66221902D01*
X99773553Y-65988631D01*
X99713165Y-65802778D01*
X99700568Y-65764008D01*
X99700566Y-65764005D01*
X99700566Y-65764003D01*
X99593342Y-65553566D01*
X99454517Y-65362490D01*
X99287510Y-65195483D01*
X99096433Y-65056657D01*
X98885996Y-64949433D01*
X98661368Y-64876446D01*
X98428097Y-64839500D01*
X98428092Y-64839500D01*
X98191908Y-64839500D01*
X98191903Y-64839500D01*
X97958631Y-64876446D01*
X97734003Y-64949433D01*
X97523566Y-65056657D01*
X97430437Y-65124320D01*
X97332490Y-65195483D01*
X97332488Y-65195485D01*
X97332487Y-65195485D01*
X97165484Y-65362488D01*
X97140318Y-65397127D01*
X97084987Y-65439792D01*
X97015374Y-65445771D01*
X96953579Y-65413165D01*
X96939682Y-65397127D01*
X96914517Y-65362490D01*
X96747510Y-65195483D01*
X96556433Y-65056657D01*
X96345996Y-64949433D01*
X96121368Y-64876446D01*
X95888097Y-64839500D01*
X95888092Y-64839500D01*
X95651908Y-64839500D01*
X95651903Y-64839500D01*
X95418631Y-64876446D01*
X95194003Y-64949433D01*
X94983566Y-65056657D01*
X94890437Y-65124320D01*
X94792490Y-65195483D01*
X94792488Y-65195485D01*
X94792487Y-65195485D01*
X94625482Y-65362490D01*
X94595848Y-65403278D01*
X94540517Y-65445943D01*
X94470904Y-65451921D01*
X94409109Y-65419314D01*
X94395220Y-65403285D01*
X94374517Y-65374790D01*
X94207510Y-65207783D01*
X94016433Y-65068957D01*
X93992293Y-65056657D01*
X93805996Y-64961733D01*
X93581368Y-64888746D01*
X93348097Y-64851800D01*
X93348092Y-64851800D01*
X93111908Y-64851800D01*
X93111903Y-64851800D01*
X92878631Y-64888746D01*
X92654003Y-64961733D01*
X92443563Y-65068959D01*
X92367365Y-65124320D01*
X92301559Y-65147800D01*
X92233505Y-65131974D01*
X92184810Y-65081868D01*
X92178298Y-65067335D01*
X92171054Y-65047913D01*
X92171050Y-65047906D01*
X92084890Y-64932812D01*
X92084887Y-64932809D01*
X91969793Y-64846649D01*
X91969786Y-64846645D01*
X91835079Y-64796403D01*
X91835072Y-64796401D01*
X91775544Y-64790000D01*
X90927700Y-64790000D01*
X90927700Y-65912186D01*
X90882993Y-65886375D01*
X90755826Y-65852300D01*
X90624174Y-65852300D01*
X90497007Y-65886375D01*
X90427700Y-65926389D01*
X90427700Y-64790000D01*
X89579855Y-64790000D01*
X89520327Y-64796401D01*
X89520320Y-64796403D01*
X89385613Y-64846645D01*
X89385606Y-64846649D01*
X89270512Y-64932809D01*
X89270509Y-64932812D01*
X89184349Y-65047906D01*
X89184345Y-65047913D01*
X89134103Y-65182620D01*
X89134101Y-65182627D01*
X89127700Y-65242155D01*
X79500500Y-65242155D01*
X79500500Y-61124500D01*
X79520185Y-61057461D01*
X79572989Y-61011706D01*
X79624500Y-61000500D01*
X162631152Y-61000500D01*
X162698191Y-61020185D01*
G37*
%TD.AperFunction*%
%TD*%
M02*
