%TF.GenerationSoftware,KiCad,Pcbnew,9.0.2*%
%TF.CreationDate,2025-06-05T21:12:55+05:30*%
%TF.ProjectId,1 try,31207472-792e-46b6-9963-61645f706362,rev?*%
%TF.SameCoordinates,Original*%
%TF.FileFunction,Legend,Top*%
%TF.FilePolarity,Positive*%
%FSLAX46Y46*%
G04 Gerber Fmt 4.6, Leading zero omitted, Abs format (unit mm)*
G04 Created by KiCad (PCBNEW 9.0.2) date 2025-06-05 21:12:55*
%MOMM*%
%LPD*%
G01*
G04 APERTURE LIST*
%ADD10C,0.150000*%
%ADD11C,0.250000*%
%ADD12C,0.100000*%
%ADD13C,0.120000*%
G04 APERTURE END LIST*
D10*
X119665714Y-111409104D02*
X120141904Y-111409104D01*
X119570476Y-111694819D02*
X119903809Y-110694819D01*
X119903809Y-110694819D02*
X120237142Y-111694819D01*
X121094285Y-111694819D02*
X120522857Y-111694819D01*
X120808571Y-111694819D02*
X120808571Y-110694819D01*
X120808571Y-110694819D02*
X120713333Y-110837676D01*
X120713333Y-110837676D02*
X120618095Y-110932914D01*
X120618095Y-110932914D02*
X120522857Y-110980533D01*
X121641904Y-71145180D02*
X121641904Y-70335657D01*
X121641904Y-70335657D02*
X121594285Y-70240419D01*
X121594285Y-70240419D02*
X121546666Y-70192800D01*
X121546666Y-70192800D02*
X121451428Y-70145180D01*
X121451428Y-70145180D02*
X121260952Y-70145180D01*
X121260952Y-70145180D02*
X121165714Y-70192800D01*
X121165714Y-70192800D02*
X121118095Y-70240419D01*
X121118095Y-70240419D02*
X121070476Y-70335657D01*
X121070476Y-70335657D02*
X121070476Y-71145180D01*
X120641904Y-70192800D02*
X120499047Y-70145180D01*
X120499047Y-70145180D02*
X120260952Y-70145180D01*
X120260952Y-70145180D02*
X120165714Y-70192800D01*
X120165714Y-70192800D02*
X120118095Y-70240419D01*
X120118095Y-70240419D02*
X120070476Y-70335657D01*
X120070476Y-70335657D02*
X120070476Y-70430895D01*
X120070476Y-70430895D02*
X120118095Y-70526133D01*
X120118095Y-70526133D02*
X120165714Y-70573752D01*
X120165714Y-70573752D02*
X120260952Y-70621371D01*
X120260952Y-70621371D02*
X120451428Y-70668990D01*
X120451428Y-70668990D02*
X120546666Y-70716609D01*
X120546666Y-70716609D02*
X120594285Y-70764228D01*
X120594285Y-70764228D02*
X120641904Y-70859466D01*
X120641904Y-70859466D02*
X120641904Y-70954704D01*
X120641904Y-70954704D02*
X120594285Y-71049942D01*
X120594285Y-71049942D02*
X120546666Y-71097561D01*
X120546666Y-71097561D02*
X120451428Y-71145180D01*
X120451428Y-71145180D02*
X120213333Y-71145180D01*
X120213333Y-71145180D02*
X120070476Y-71097561D01*
X119308571Y-70668990D02*
X119165714Y-70621371D01*
X119165714Y-70621371D02*
X119118095Y-70573752D01*
X119118095Y-70573752D02*
X119070476Y-70478514D01*
X119070476Y-70478514D02*
X119070476Y-70335657D01*
X119070476Y-70335657D02*
X119118095Y-70240419D01*
X119118095Y-70240419D02*
X119165714Y-70192800D01*
X119165714Y-70192800D02*
X119260952Y-70145180D01*
X119260952Y-70145180D02*
X119641904Y-70145180D01*
X119641904Y-70145180D02*
X119641904Y-71145180D01*
X119641904Y-71145180D02*
X119308571Y-71145180D01*
X119308571Y-71145180D02*
X119213333Y-71097561D01*
X119213333Y-71097561D02*
X119165714Y-71049942D01*
X119165714Y-71049942D02*
X119118095Y-70954704D01*
X119118095Y-70954704D02*
X119118095Y-70859466D01*
X119118095Y-70859466D02*
X119165714Y-70764228D01*
X119165714Y-70764228D02*
X119213333Y-70716609D01*
X119213333Y-70716609D02*
X119308571Y-70668990D01*
X119308571Y-70668990D02*
X119641904Y-70668990D01*
X137402667Y-106103200D02*
X137545524Y-106150819D01*
X137545524Y-106150819D02*
X137783619Y-106150819D01*
X137783619Y-106150819D02*
X137878857Y-106103200D01*
X137878857Y-106103200D02*
X137926476Y-106055580D01*
X137926476Y-106055580D02*
X137974095Y-105960342D01*
X137974095Y-105960342D02*
X137974095Y-105865104D01*
X137974095Y-105865104D02*
X137926476Y-105769866D01*
X137926476Y-105769866D02*
X137878857Y-105722247D01*
X137878857Y-105722247D02*
X137783619Y-105674628D01*
X137783619Y-105674628D02*
X137593143Y-105627009D01*
X137593143Y-105627009D02*
X137497905Y-105579390D01*
X137497905Y-105579390D02*
X137450286Y-105531771D01*
X137450286Y-105531771D02*
X137402667Y-105436533D01*
X137402667Y-105436533D02*
X137402667Y-105341295D01*
X137402667Y-105341295D02*
X137450286Y-105246057D01*
X137450286Y-105246057D02*
X137497905Y-105198438D01*
X137497905Y-105198438D02*
X137593143Y-105150819D01*
X137593143Y-105150819D02*
X137831238Y-105150819D01*
X137831238Y-105150819D02*
X137974095Y-105198438D01*
X138307429Y-105150819D02*
X138545524Y-106150819D01*
X138545524Y-106150819D02*
X138736000Y-105436533D01*
X138736000Y-105436533D02*
X138926476Y-106150819D01*
X138926476Y-106150819D02*
X139164572Y-105150819D01*
X139450286Y-105150819D02*
X140069333Y-105150819D01*
X140069333Y-105150819D02*
X139736000Y-105531771D01*
X139736000Y-105531771D02*
X139878857Y-105531771D01*
X139878857Y-105531771D02*
X139974095Y-105579390D01*
X139974095Y-105579390D02*
X140021714Y-105627009D01*
X140021714Y-105627009D02*
X140069333Y-105722247D01*
X140069333Y-105722247D02*
X140069333Y-105960342D01*
X140069333Y-105960342D02*
X140021714Y-106055580D01*
X140021714Y-106055580D02*
X139974095Y-106103200D01*
X139974095Y-106103200D02*
X139878857Y-106150819D01*
X139878857Y-106150819D02*
X139593143Y-106150819D01*
X139593143Y-106150819D02*
X139497905Y-106103200D01*
X139497905Y-106103200D02*
X139450286Y-106055580D01*
X157059333Y-75892819D02*
X156726000Y-75416628D01*
X156487905Y-75892819D02*
X156487905Y-74892819D01*
X156487905Y-74892819D02*
X156868857Y-74892819D01*
X156868857Y-74892819D02*
X156964095Y-74940438D01*
X156964095Y-74940438D02*
X157011714Y-74988057D01*
X157011714Y-74988057D02*
X157059333Y-75083295D01*
X157059333Y-75083295D02*
X157059333Y-75226152D01*
X157059333Y-75226152D02*
X157011714Y-75321390D01*
X157011714Y-75321390D02*
X156964095Y-75369009D01*
X156964095Y-75369009D02*
X156868857Y-75416628D01*
X156868857Y-75416628D02*
X156487905Y-75416628D01*
X158011714Y-75892819D02*
X157440286Y-75892819D01*
X157726000Y-75892819D02*
X157726000Y-74892819D01*
X157726000Y-74892819D02*
X157630762Y-75035676D01*
X157630762Y-75035676D02*
X157535524Y-75130914D01*
X157535524Y-75130914D02*
X157440286Y-75178533D01*
X149705333Y-94343580D02*
X149657714Y-94391200D01*
X149657714Y-94391200D02*
X149514857Y-94438819D01*
X149514857Y-94438819D02*
X149419619Y-94438819D01*
X149419619Y-94438819D02*
X149276762Y-94391200D01*
X149276762Y-94391200D02*
X149181524Y-94295961D01*
X149181524Y-94295961D02*
X149133905Y-94200723D01*
X149133905Y-94200723D02*
X149086286Y-94010247D01*
X149086286Y-94010247D02*
X149086286Y-93867390D01*
X149086286Y-93867390D02*
X149133905Y-93676914D01*
X149133905Y-93676914D02*
X149181524Y-93581676D01*
X149181524Y-93581676D02*
X149276762Y-93486438D01*
X149276762Y-93486438D02*
X149419619Y-93438819D01*
X149419619Y-93438819D02*
X149514857Y-93438819D01*
X149514857Y-93438819D02*
X149657714Y-93486438D01*
X149657714Y-93486438D02*
X149705333Y-93534057D01*
X150086286Y-93534057D02*
X150133905Y-93486438D01*
X150133905Y-93486438D02*
X150229143Y-93438819D01*
X150229143Y-93438819D02*
X150467238Y-93438819D01*
X150467238Y-93438819D02*
X150562476Y-93486438D01*
X150562476Y-93486438D02*
X150610095Y-93534057D01*
X150610095Y-93534057D02*
X150657714Y-93629295D01*
X150657714Y-93629295D02*
X150657714Y-93724533D01*
X150657714Y-93724533D02*
X150610095Y-93867390D01*
X150610095Y-93867390D02*
X150038667Y-94438819D01*
X150038667Y-94438819D02*
X150657714Y-94438819D01*
D11*
X103136190Y-86109619D02*
X103136190Y-86919142D01*
X103136190Y-86919142D02*
X103231428Y-87014380D01*
X103231428Y-87014380D02*
X103326666Y-87062000D01*
X103326666Y-87062000D02*
X103517142Y-87109619D01*
X103517142Y-87109619D02*
X103898095Y-87109619D01*
X103898095Y-87109619D02*
X104088571Y-87062000D01*
X104088571Y-87062000D02*
X104183809Y-87014380D01*
X104183809Y-87014380D02*
X104279047Y-86919142D01*
X104279047Y-86919142D02*
X104279047Y-86109619D01*
X105136190Y-86204857D02*
X105231428Y-86157238D01*
X105231428Y-86157238D02*
X105421904Y-86109619D01*
X105421904Y-86109619D02*
X105898095Y-86109619D01*
X105898095Y-86109619D02*
X106088571Y-86157238D01*
X106088571Y-86157238D02*
X106183809Y-86204857D01*
X106183809Y-86204857D02*
X106279047Y-86300095D01*
X106279047Y-86300095D02*
X106279047Y-86395333D01*
X106279047Y-86395333D02*
X106183809Y-86538190D01*
X106183809Y-86538190D02*
X105040952Y-87109619D01*
X105040952Y-87109619D02*
X106279047Y-87109619D01*
D12*
X89610038Y-70592306D02*
X89562419Y-70687544D01*
X89562419Y-70687544D02*
X89562419Y-70830401D01*
X89562419Y-70830401D02*
X89610038Y-70973258D01*
X89610038Y-70973258D02*
X89705276Y-71068496D01*
X89705276Y-71068496D02*
X89800514Y-71116115D01*
X89800514Y-71116115D02*
X89990990Y-71163734D01*
X89990990Y-71163734D02*
X90133847Y-71163734D01*
X90133847Y-71163734D02*
X90324323Y-71116115D01*
X90324323Y-71116115D02*
X90419561Y-71068496D01*
X90419561Y-71068496D02*
X90514800Y-70973258D01*
X90514800Y-70973258D02*
X90562419Y-70830401D01*
X90562419Y-70830401D02*
X90562419Y-70735163D01*
X90562419Y-70735163D02*
X90514800Y-70592306D01*
X90514800Y-70592306D02*
X90467180Y-70544687D01*
X90467180Y-70544687D02*
X90133847Y-70544687D01*
X90133847Y-70544687D02*
X90133847Y-70735163D01*
X90562419Y-70116115D02*
X89562419Y-70116115D01*
X89562419Y-70116115D02*
X90562419Y-69544687D01*
X90562419Y-69544687D02*
X89562419Y-69544687D01*
X90562419Y-69068496D02*
X89562419Y-69068496D01*
X89562419Y-69068496D02*
X89562419Y-68830401D01*
X89562419Y-68830401D02*
X89610038Y-68687544D01*
X89610038Y-68687544D02*
X89705276Y-68592306D01*
X89705276Y-68592306D02*
X89800514Y-68544687D01*
X89800514Y-68544687D02*
X89990990Y-68497068D01*
X89990990Y-68497068D02*
X90133847Y-68497068D01*
X90133847Y-68497068D02*
X90324323Y-68544687D01*
X90324323Y-68544687D02*
X90419561Y-68592306D01*
X90419561Y-68592306D02*
X90514800Y-68687544D01*
X90514800Y-68687544D02*
X90562419Y-68830401D01*
X90562419Y-68830401D02*
X90562419Y-69068496D01*
X98134800Y-71163734D02*
X98182419Y-71020877D01*
X98182419Y-71020877D02*
X98182419Y-70782782D01*
X98182419Y-70782782D02*
X98134800Y-70687544D01*
X98134800Y-70687544D02*
X98087180Y-70639925D01*
X98087180Y-70639925D02*
X97991942Y-70592306D01*
X97991942Y-70592306D02*
X97896704Y-70592306D01*
X97896704Y-70592306D02*
X97801466Y-70639925D01*
X97801466Y-70639925D02*
X97753847Y-70687544D01*
X97753847Y-70687544D02*
X97706228Y-70782782D01*
X97706228Y-70782782D02*
X97658609Y-70973258D01*
X97658609Y-70973258D02*
X97610990Y-71068496D01*
X97610990Y-71068496D02*
X97563371Y-71116115D01*
X97563371Y-71116115D02*
X97468133Y-71163734D01*
X97468133Y-71163734D02*
X97372895Y-71163734D01*
X97372895Y-71163734D02*
X97277657Y-71116115D01*
X97277657Y-71116115D02*
X97230038Y-71068496D01*
X97230038Y-71068496D02*
X97182419Y-70973258D01*
X97182419Y-70973258D02*
X97182419Y-70735163D01*
X97182419Y-70735163D02*
X97230038Y-70592306D01*
X98182419Y-70163734D02*
X97182419Y-70163734D01*
X97182419Y-70163734D02*
X97182419Y-69925639D01*
X97182419Y-69925639D02*
X97230038Y-69782782D01*
X97230038Y-69782782D02*
X97325276Y-69687544D01*
X97325276Y-69687544D02*
X97420514Y-69639925D01*
X97420514Y-69639925D02*
X97610990Y-69592306D01*
X97610990Y-69592306D02*
X97753847Y-69592306D01*
X97753847Y-69592306D02*
X97944323Y-69639925D01*
X97944323Y-69639925D02*
X98039561Y-69687544D01*
X98039561Y-69687544D02*
X98134800Y-69782782D01*
X98134800Y-69782782D02*
X98182419Y-69925639D01*
X98182419Y-69925639D02*
X98182419Y-70163734D01*
X97896704Y-69211353D02*
X97896704Y-68735163D01*
X98182419Y-69306591D02*
X97182419Y-68973258D01*
X97182419Y-68973258D02*
X98182419Y-68639925D01*
X92102419Y-71258972D02*
X93102419Y-70925639D01*
X93102419Y-70925639D02*
X92102419Y-70592306D01*
X93007180Y-69687544D02*
X93054800Y-69735163D01*
X93054800Y-69735163D02*
X93102419Y-69878020D01*
X93102419Y-69878020D02*
X93102419Y-69973258D01*
X93102419Y-69973258D02*
X93054800Y-70116115D01*
X93054800Y-70116115D02*
X92959561Y-70211353D01*
X92959561Y-70211353D02*
X92864323Y-70258972D01*
X92864323Y-70258972D02*
X92673847Y-70306591D01*
X92673847Y-70306591D02*
X92530990Y-70306591D01*
X92530990Y-70306591D02*
X92340514Y-70258972D01*
X92340514Y-70258972D02*
X92245276Y-70211353D01*
X92245276Y-70211353D02*
X92150038Y-70116115D01*
X92150038Y-70116115D02*
X92102419Y-69973258D01*
X92102419Y-69973258D02*
X92102419Y-69878020D01*
X92102419Y-69878020D02*
X92150038Y-69735163D01*
X92150038Y-69735163D02*
X92197657Y-69687544D01*
X93007180Y-68687544D02*
X93054800Y-68735163D01*
X93054800Y-68735163D02*
X93102419Y-68878020D01*
X93102419Y-68878020D02*
X93102419Y-68973258D01*
X93102419Y-68973258D02*
X93054800Y-69116115D01*
X93054800Y-69116115D02*
X92959561Y-69211353D01*
X92959561Y-69211353D02*
X92864323Y-69258972D01*
X92864323Y-69258972D02*
X92673847Y-69306591D01*
X92673847Y-69306591D02*
X92530990Y-69306591D01*
X92530990Y-69306591D02*
X92340514Y-69258972D01*
X92340514Y-69258972D02*
X92245276Y-69211353D01*
X92245276Y-69211353D02*
X92150038Y-69116115D01*
X92150038Y-69116115D02*
X92102419Y-68973258D01*
X92102419Y-68973258D02*
X92102419Y-68878020D01*
X92102419Y-68878020D02*
X92150038Y-68735163D01*
X92150038Y-68735163D02*
X92197657Y-68687544D01*
X95594800Y-71163734D02*
X95642419Y-71020877D01*
X95642419Y-71020877D02*
X95642419Y-70782782D01*
X95642419Y-70782782D02*
X95594800Y-70687544D01*
X95594800Y-70687544D02*
X95547180Y-70639925D01*
X95547180Y-70639925D02*
X95451942Y-70592306D01*
X95451942Y-70592306D02*
X95356704Y-70592306D01*
X95356704Y-70592306D02*
X95261466Y-70639925D01*
X95261466Y-70639925D02*
X95213847Y-70687544D01*
X95213847Y-70687544D02*
X95166228Y-70782782D01*
X95166228Y-70782782D02*
X95118609Y-70973258D01*
X95118609Y-70973258D02*
X95070990Y-71068496D01*
X95070990Y-71068496D02*
X95023371Y-71116115D01*
X95023371Y-71116115D02*
X94928133Y-71163734D01*
X94928133Y-71163734D02*
X94832895Y-71163734D01*
X94832895Y-71163734D02*
X94737657Y-71116115D01*
X94737657Y-71116115D02*
X94690038Y-71068496D01*
X94690038Y-71068496D02*
X94642419Y-70973258D01*
X94642419Y-70973258D02*
X94642419Y-70735163D01*
X94642419Y-70735163D02*
X94690038Y-70592306D01*
X95547180Y-69592306D02*
X95594800Y-69639925D01*
X95594800Y-69639925D02*
X95642419Y-69782782D01*
X95642419Y-69782782D02*
X95642419Y-69878020D01*
X95642419Y-69878020D02*
X95594800Y-70020877D01*
X95594800Y-70020877D02*
X95499561Y-70116115D01*
X95499561Y-70116115D02*
X95404323Y-70163734D01*
X95404323Y-70163734D02*
X95213847Y-70211353D01*
X95213847Y-70211353D02*
X95070990Y-70211353D01*
X95070990Y-70211353D02*
X94880514Y-70163734D01*
X94880514Y-70163734D02*
X94785276Y-70116115D01*
X94785276Y-70116115D02*
X94690038Y-70020877D01*
X94690038Y-70020877D02*
X94642419Y-69878020D01*
X94642419Y-69878020D02*
X94642419Y-69782782D01*
X94642419Y-69782782D02*
X94690038Y-69639925D01*
X94690038Y-69639925D02*
X94737657Y-69592306D01*
X95642419Y-68687544D02*
X95642419Y-69163734D01*
X95642419Y-69163734D02*
X94642419Y-69163734D01*
D10*
X159289333Y-93964819D02*
X158956000Y-93488628D01*
X158717905Y-93964819D02*
X158717905Y-92964819D01*
X158717905Y-92964819D02*
X159098857Y-92964819D01*
X159098857Y-92964819D02*
X159194095Y-93012438D01*
X159194095Y-93012438D02*
X159241714Y-93060057D01*
X159241714Y-93060057D02*
X159289333Y-93155295D01*
X159289333Y-93155295D02*
X159289333Y-93298152D01*
X159289333Y-93298152D02*
X159241714Y-93393390D01*
X159241714Y-93393390D02*
X159194095Y-93441009D01*
X159194095Y-93441009D02*
X159098857Y-93488628D01*
X159098857Y-93488628D02*
X158717905Y-93488628D01*
X159670286Y-93060057D02*
X159717905Y-93012438D01*
X159717905Y-93012438D02*
X159813143Y-92964819D01*
X159813143Y-92964819D02*
X160051238Y-92964819D01*
X160051238Y-92964819D02*
X160146476Y-93012438D01*
X160146476Y-93012438D02*
X160194095Y-93060057D01*
X160194095Y-93060057D02*
X160241714Y-93155295D01*
X160241714Y-93155295D02*
X160241714Y-93250533D01*
X160241714Y-93250533D02*
X160194095Y-93393390D01*
X160194095Y-93393390D02*
X159622667Y-93964819D01*
X159622667Y-93964819D02*
X160241714Y-93964819D01*
D12*
X100122857Y-104766109D02*
X100122857Y-105170871D01*
X100122857Y-105170871D02*
X100151428Y-105218490D01*
X100151428Y-105218490D02*
X100180000Y-105242300D01*
X100180000Y-105242300D02*
X100237142Y-105266109D01*
X100237142Y-105266109D02*
X100351428Y-105266109D01*
X100351428Y-105266109D02*
X100408571Y-105242300D01*
X100408571Y-105242300D02*
X100437142Y-105218490D01*
X100437142Y-105218490D02*
X100465714Y-105170871D01*
X100465714Y-105170871D02*
X100465714Y-104766109D01*
X101065713Y-105266109D02*
X100722856Y-105266109D01*
X100894285Y-105266109D02*
X100894285Y-104766109D01*
X100894285Y-104766109D02*
X100837142Y-104837538D01*
X100837142Y-104837538D02*
X100779999Y-104885157D01*
X100779999Y-104885157D02*
X100722856Y-104908966D01*
X92784800Y-102243734D02*
X92832419Y-102100877D01*
X92832419Y-102100877D02*
X92832419Y-101862782D01*
X92832419Y-101862782D02*
X92784800Y-101767544D01*
X92784800Y-101767544D02*
X92737180Y-101719925D01*
X92737180Y-101719925D02*
X92641942Y-101672306D01*
X92641942Y-101672306D02*
X92546704Y-101672306D01*
X92546704Y-101672306D02*
X92451466Y-101719925D01*
X92451466Y-101719925D02*
X92403847Y-101767544D01*
X92403847Y-101767544D02*
X92356228Y-101862782D01*
X92356228Y-101862782D02*
X92308609Y-102053258D01*
X92308609Y-102053258D02*
X92260990Y-102148496D01*
X92260990Y-102148496D02*
X92213371Y-102196115D01*
X92213371Y-102196115D02*
X92118133Y-102243734D01*
X92118133Y-102243734D02*
X92022895Y-102243734D01*
X92022895Y-102243734D02*
X91927657Y-102196115D01*
X91927657Y-102196115D02*
X91880038Y-102148496D01*
X91880038Y-102148496D02*
X91832419Y-102053258D01*
X91832419Y-102053258D02*
X91832419Y-101815163D01*
X91832419Y-101815163D02*
X91880038Y-101672306D01*
X92832419Y-101243734D02*
X91832419Y-101243734D01*
X91832419Y-101243734D02*
X91832419Y-101005639D01*
X91832419Y-101005639D02*
X91880038Y-100862782D01*
X91880038Y-100862782D02*
X91975276Y-100767544D01*
X91975276Y-100767544D02*
X92070514Y-100719925D01*
X92070514Y-100719925D02*
X92260990Y-100672306D01*
X92260990Y-100672306D02*
X92403847Y-100672306D01*
X92403847Y-100672306D02*
X92594323Y-100719925D01*
X92594323Y-100719925D02*
X92689561Y-100767544D01*
X92689561Y-100767544D02*
X92784800Y-100862782D01*
X92784800Y-100862782D02*
X92832419Y-101005639D01*
X92832419Y-101005639D02*
X92832419Y-101243734D01*
X92546704Y-100291353D02*
X92546704Y-99815163D01*
X92832419Y-100386591D02*
X91832419Y-100053258D01*
X91832419Y-100053258D02*
X92832419Y-99719925D01*
X95324800Y-102243734D02*
X95372419Y-102100877D01*
X95372419Y-102100877D02*
X95372419Y-101862782D01*
X95372419Y-101862782D02*
X95324800Y-101767544D01*
X95324800Y-101767544D02*
X95277180Y-101719925D01*
X95277180Y-101719925D02*
X95181942Y-101672306D01*
X95181942Y-101672306D02*
X95086704Y-101672306D01*
X95086704Y-101672306D02*
X94991466Y-101719925D01*
X94991466Y-101719925D02*
X94943847Y-101767544D01*
X94943847Y-101767544D02*
X94896228Y-101862782D01*
X94896228Y-101862782D02*
X94848609Y-102053258D01*
X94848609Y-102053258D02*
X94800990Y-102148496D01*
X94800990Y-102148496D02*
X94753371Y-102196115D01*
X94753371Y-102196115D02*
X94658133Y-102243734D01*
X94658133Y-102243734D02*
X94562895Y-102243734D01*
X94562895Y-102243734D02*
X94467657Y-102196115D01*
X94467657Y-102196115D02*
X94420038Y-102148496D01*
X94420038Y-102148496D02*
X94372419Y-102053258D01*
X94372419Y-102053258D02*
X94372419Y-101815163D01*
X94372419Y-101815163D02*
X94420038Y-101672306D01*
X95277180Y-100672306D02*
X95324800Y-100719925D01*
X95324800Y-100719925D02*
X95372419Y-100862782D01*
X95372419Y-100862782D02*
X95372419Y-100958020D01*
X95372419Y-100958020D02*
X95324800Y-101100877D01*
X95324800Y-101100877D02*
X95229561Y-101196115D01*
X95229561Y-101196115D02*
X95134323Y-101243734D01*
X95134323Y-101243734D02*
X94943847Y-101291353D01*
X94943847Y-101291353D02*
X94800990Y-101291353D01*
X94800990Y-101291353D02*
X94610514Y-101243734D01*
X94610514Y-101243734D02*
X94515276Y-101196115D01*
X94515276Y-101196115D02*
X94420038Y-101100877D01*
X94420038Y-101100877D02*
X94372419Y-100958020D01*
X94372419Y-100958020D02*
X94372419Y-100862782D01*
X94372419Y-100862782D02*
X94420038Y-100719925D01*
X94420038Y-100719925D02*
X94467657Y-100672306D01*
X95372419Y-99767544D02*
X95372419Y-100243734D01*
X95372419Y-100243734D02*
X94372419Y-100243734D01*
X99452419Y-102338972D02*
X100452419Y-102005639D01*
X100452419Y-102005639D02*
X99452419Y-101672306D01*
X100357180Y-100767544D02*
X100404800Y-100815163D01*
X100404800Y-100815163D02*
X100452419Y-100958020D01*
X100452419Y-100958020D02*
X100452419Y-101053258D01*
X100452419Y-101053258D02*
X100404800Y-101196115D01*
X100404800Y-101196115D02*
X100309561Y-101291353D01*
X100309561Y-101291353D02*
X100214323Y-101338972D01*
X100214323Y-101338972D02*
X100023847Y-101386591D01*
X100023847Y-101386591D02*
X99880990Y-101386591D01*
X99880990Y-101386591D02*
X99690514Y-101338972D01*
X99690514Y-101338972D02*
X99595276Y-101291353D01*
X99595276Y-101291353D02*
X99500038Y-101196115D01*
X99500038Y-101196115D02*
X99452419Y-101053258D01*
X99452419Y-101053258D02*
X99452419Y-100958020D01*
X99452419Y-100958020D02*
X99500038Y-100815163D01*
X99500038Y-100815163D02*
X99547657Y-100767544D01*
X100357180Y-99767544D02*
X100404800Y-99815163D01*
X100404800Y-99815163D02*
X100452419Y-99958020D01*
X100452419Y-99958020D02*
X100452419Y-100053258D01*
X100452419Y-100053258D02*
X100404800Y-100196115D01*
X100404800Y-100196115D02*
X100309561Y-100291353D01*
X100309561Y-100291353D02*
X100214323Y-100338972D01*
X100214323Y-100338972D02*
X100023847Y-100386591D01*
X100023847Y-100386591D02*
X99880990Y-100386591D01*
X99880990Y-100386591D02*
X99690514Y-100338972D01*
X99690514Y-100338972D02*
X99595276Y-100291353D01*
X99595276Y-100291353D02*
X99500038Y-100196115D01*
X99500038Y-100196115D02*
X99452419Y-100053258D01*
X99452419Y-100053258D02*
X99452419Y-99958020D01*
X99452419Y-99958020D02*
X99500038Y-99815163D01*
X99500038Y-99815163D02*
X99547657Y-99767544D01*
X90292419Y-102196115D02*
X89292419Y-102196115D01*
X90292419Y-101719925D02*
X89292419Y-101719925D01*
X89292419Y-101719925D02*
X90292419Y-101148497D01*
X90292419Y-101148497D02*
X89292419Y-101148497D01*
X89292419Y-100815163D02*
X89292419Y-100243735D01*
X90292419Y-100529449D02*
X89292419Y-100529449D01*
X96960038Y-101672306D02*
X96912419Y-101767544D01*
X96912419Y-101767544D02*
X96912419Y-101910401D01*
X96912419Y-101910401D02*
X96960038Y-102053258D01*
X96960038Y-102053258D02*
X97055276Y-102148496D01*
X97055276Y-102148496D02*
X97150514Y-102196115D01*
X97150514Y-102196115D02*
X97340990Y-102243734D01*
X97340990Y-102243734D02*
X97483847Y-102243734D01*
X97483847Y-102243734D02*
X97674323Y-102196115D01*
X97674323Y-102196115D02*
X97769561Y-102148496D01*
X97769561Y-102148496D02*
X97864800Y-102053258D01*
X97864800Y-102053258D02*
X97912419Y-101910401D01*
X97912419Y-101910401D02*
X97912419Y-101815163D01*
X97912419Y-101815163D02*
X97864800Y-101672306D01*
X97864800Y-101672306D02*
X97817180Y-101624687D01*
X97817180Y-101624687D02*
X97483847Y-101624687D01*
X97483847Y-101624687D02*
X97483847Y-101815163D01*
X97912419Y-101196115D02*
X96912419Y-101196115D01*
X96912419Y-101196115D02*
X97912419Y-100624687D01*
X97912419Y-100624687D02*
X96912419Y-100624687D01*
X97912419Y-100148496D02*
X96912419Y-100148496D01*
X96912419Y-100148496D02*
X96912419Y-99910401D01*
X96912419Y-99910401D02*
X96960038Y-99767544D01*
X96960038Y-99767544D02*
X97055276Y-99672306D01*
X97055276Y-99672306D02*
X97150514Y-99624687D01*
X97150514Y-99624687D02*
X97340990Y-99577068D01*
X97340990Y-99577068D02*
X97483847Y-99577068D01*
X97483847Y-99577068D02*
X97674323Y-99624687D01*
X97674323Y-99624687D02*
X97769561Y-99672306D01*
X97769561Y-99672306D02*
X97864800Y-99767544D01*
X97864800Y-99767544D02*
X97912419Y-99910401D01*
X97912419Y-99910401D02*
X97912419Y-100148496D01*
D10*
X136894667Y-93911200D02*
X137037524Y-93958819D01*
X137037524Y-93958819D02*
X137275619Y-93958819D01*
X137275619Y-93958819D02*
X137370857Y-93911200D01*
X137370857Y-93911200D02*
X137418476Y-93863580D01*
X137418476Y-93863580D02*
X137466095Y-93768342D01*
X137466095Y-93768342D02*
X137466095Y-93673104D01*
X137466095Y-93673104D02*
X137418476Y-93577866D01*
X137418476Y-93577866D02*
X137370857Y-93530247D01*
X137370857Y-93530247D02*
X137275619Y-93482628D01*
X137275619Y-93482628D02*
X137085143Y-93435009D01*
X137085143Y-93435009D02*
X136989905Y-93387390D01*
X136989905Y-93387390D02*
X136942286Y-93339771D01*
X136942286Y-93339771D02*
X136894667Y-93244533D01*
X136894667Y-93244533D02*
X136894667Y-93149295D01*
X136894667Y-93149295D02*
X136942286Y-93054057D01*
X136942286Y-93054057D02*
X136989905Y-93006438D01*
X136989905Y-93006438D02*
X137085143Y-92958819D01*
X137085143Y-92958819D02*
X137323238Y-92958819D01*
X137323238Y-92958819D02*
X137466095Y-93006438D01*
X137799429Y-92958819D02*
X138037524Y-93958819D01*
X138037524Y-93958819D02*
X138228000Y-93244533D01*
X138228000Y-93244533D02*
X138418476Y-93958819D01*
X138418476Y-93958819D02*
X138656572Y-92958819D01*
X138989905Y-93054057D02*
X139037524Y-93006438D01*
X139037524Y-93006438D02*
X139132762Y-92958819D01*
X139132762Y-92958819D02*
X139370857Y-92958819D01*
X139370857Y-92958819D02*
X139466095Y-93006438D01*
X139466095Y-93006438D02*
X139513714Y-93054057D01*
X139513714Y-93054057D02*
X139561333Y-93149295D01*
X139561333Y-93149295D02*
X139561333Y-93244533D01*
X139561333Y-93244533D02*
X139513714Y-93387390D01*
X139513714Y-93387390D02*
X138942286Y-93958819D01*
X138942286Y-93958819D02*
X139561333Y-93958819D01*
X159289333Y-107426819D02*
X158956000Y-106950628D01*
X158717905Y-107426819D02*
X158717905Y-106426819D01*
X158717905Y-106426819D02*
X159098857Y-106426819D01*
X159098857Y-106426819D02*
X159194095Y-106474438D01*
X159194095Y-106474438D02*
X159241714Y-106522057D01*
X159241714Y-106522057D02*
X159289333Y-106617295D01*
X159289333Y-106617295D02*
X159289333Y-106760152D01*
X159289333Y-106760152D02*
X159241714Y-106855390D01*
X159241714Y-106855390D02*
X159194095Y-106903009D01*
X159194095Y-106903009D02*
X159098857Y-106950628D01*
X159098857Y-106950628D02*
X158717905Y-106950628D01*
X159622667Y-106426819D02*
X160241714Y-106426819D01*
X160241714Y-106426819D02*
X159908381Y-106807771D01*
X159908381Y-106807771D02*
X160051238Y-106807771D01*
X160051238Y-106807771D02*
X160146476Y-106855390D01*
X160146476Y-106855390D02*
X160194095Y-106903009D01*
X160194095Y-106903009D02*
X160241714Y-106998247D01*
X160241714Y-106998247D02*
X160241714Y-107236342D01*
X160241714Y-107236342D02*
X160194095Y-107331580D01*
X160194095Y-107331580D02*
X160146476Y-107379200D01*
X160146476Y-107379200D02*
X160051238Y-107426819D01*
X160051238Y-107426819D02*
X159765524Y-107426819D01*
X159765524Y-107426819D02*
X159670286Y-107379200D01*
X159670286Y-107379200D02*
X159622667Y-107331580D01*
X138164667Y-79433200D02*
X138307524Y-79480819D01*
X138307524Y-79480819D02*
X138545619Y-79480819D01*
X138545619Y-79480819D02*
X138640857Y-79433200D01*
X138640857Y-79433200D02*
X138688476Y-79385580D01*
X138688476Y-79385580D02*
X138736095Y-79290342D01*
X138736095Y-79290342D02*
X138736095Y-79195104D01*
X138736095Y-79195104D02*
X138688476Y-79099866D01*
X138688476Y-79099866D02*
X138640857Y-79052247D01*
X138640857Y-79052247D02*
X138545619Y-79004628D01*
X138545619Y-79004628D02*
X138355143Y-78957009D01*
X138355143Y-78957009D02*
X138259905Y-78909390D01*
X138259905Y-78909390D02*
X138212286Y-78861771D01*
X138212286Y-78861771D02*
X138164667Y-78766533D01*
X138164667Y-78766533D02*
X138164667Y-78671295D01*
X138164667Y-78671295D02*
X138212286Y-78576057D01*
X138212286Y-78576057D02*
X138259905Y-78528438D01*
X138259905Y-78528438D02*
X138355143Y-78480819D01*
X138355143Y-78480819D02*
X138593238Y-78480819D01*
X138593238Y-78480819D02*
X138736095Y-78528438D01*
X139069429Y-78480819D02*
X139307524Y-79480819D01*
X139307524Y-79480819D02*
X139498000Y-78766533D01*
X139498000Y-78766533D02*
X139688476Y-79480819D01*
X139688476Y-79480819D02*
X139926572Y-78480819D01*
X140831333Y-79480819D02*
X140259905Y-79480819D01*
X140545619Y-79480819D02*
X140545619Y-78480819D01*
X140545619Y-78480819D02*
X140450381Y-78623676D01*
X140450381Y-78623676D02*
X140355143Y-78718914D01*
X140355143Y-78718914D02*
X140259905Y-78766533D01*
X145883333Y-63774819D02*
X145550000Y-63298628D01*
X145311905Y-63774819D02*
X145311905Y-62774819D01*
X145311905Y-62774819D02*
X145692857Y-62774819D01*
X145692857Y-62774819D02*
X145788095Y-62822438D01*
X145788095Y-62822438D02*
X145835714Y-62870057D01*
X145835714Y-62870057D02*
X145883333Y-62965295D01*
X145883333Y-62965295D02*
X145883333Y-63108152D01*
X145883333Y-63108152D02*
X145835714Y-63203390D01*
X145835714Y-63203390D02*
X145788095Y-63251009D01*
X145788095Y-63251009D02*
X145692857Y-63298628D01*
X145692857Y-63298628D02*
X145311905Y-63298628D01*
X146740476Y-63108152D02*
X146740476Y-63774819D01*
X146502381Y-62727200D02*
X146264286Y-63441485D01*
X146264286Y-63441485D02*
X146883333Y-63441485D01*
X149705333Y-81603580D02*
X149657714Y-81651200D01*
X149657714Y-81651200D02*
X149514857Y-81698819D01*
X149514857Y-81698819D02*
X149419619Y-81698819D01*
X149419619Y-81698819D02*
X149276762Y-81651200D01*
X149276762Y-81651200D02*
X149181524Y-81555961D01*
X149181524Y-81555961D02*
X149133905Y-81460723D01*
X149133905Y-81460723D02*
X149086286Y-81270247D01*
X149086286Y-81270247D02*
X149086286Y-81127390D01*
X149086286Y-81127390D02*
X149133905Y-80936914D01*
X149133905Y-80936914D02*
X149181524Y-80841676D01*
X149181524Y-80841676D02*
X149276762Y-80746438D01*
X149276762Y-80746438D02*
X149419619Y-80698819D01*
X149419619Y-80698819D02*
X149514857Y-80698819D01*
X149514857Y-80698819D02*
X149657714Y-80746438D01*
X149657714Y-80746438D02*
X149705333Y-80794057D01*
X150657714Y-81698819D02*
X150086286Y-81698819D01*
X150372000Y-81698819D02*
X150372000Y-80698819D01*
X150372000Y-80698819D02*
X150276762Y-80841676D01*
X150276762Y-80841676D02*
X150181524Y-80936914D01*
X150181524Y-80936914D02*
X150086286Y-80984533D01*
X149999333Y-107297580D02*
X149951714Y-107345200D01*
X149951714Y-107345200D02*
X149808857Y-107392819D01*
X149808857Y-107392819D02*
X149713619Y-107392819D01*
X149713619Y-107392819D02*
X149570762Y-107345200D01*
X149570762Y-107345200D02*
X149475524Y-107249961D01*
X149475524Y-107249961D02*
X149427905Y-107154723D01*
X149427905Y-107154723D02*
X149380286Y-106964247D01*
X149380286Y-106964247D02*
X149380286Y-106821390D01*
X149380286Y-106821390D02*
X149427905Y-106630914D01*
X149427905Y-106630914D02*
X149475524Y-106535676D01*
X149475524Y-106535676D02*
X149570762Y-106440438D01*
X149570762Y-106440438D02*
X149713619Y-106392819D01*
X149713619Y-106392819D02*
X149808857Y-106392819D01*
X149808857Y-106392819D02*
X149951714Y-106440438D01*
X149951714Y-106440438D02*
X149999333Y-106488057D01*
X150332667Y-106392819D02*
X150951714Y-106392819D01*
X150951714Y-106392819D02*
X150618381Y-106773771D01*
X150618381Y-106773771D02*
X150761238Y-106773771D01*
X150761238Y-106773771D02*
X150856476Y-106821390D01*
X150856476Y-106821390D02*
X150904095Y-106869009D01*
X150904095Y-106869009D02*
X150951714Y-106964247D01*
X150951714Y-106964247D02*
X150951714Y-107202342D01*
X150951714Y-107202342D02*
X150904095Y-107297580D01*
X150904095Y-107297580D02*
X150856476Y-107345200D01*
X150856476Y-107345200D02*
X150761238Y-107392819D01*
X150761238Y-107392819D02*
X150475524Y-107392819D01*
X150475524Y-107392819D02*
X150380286Y-107345200D01*
X150380286Y-107345200D02*
X150332667Y-107297580D01*
D13*
%TO.C,A1*%
X111360000Y-66660000D02*
X111360000Y-110100000D01*
X111360000Y-66660000D02*
X116440000Y-66660000D01*
X111360000Y-110100000D02*
X129400000Y-110100000D01*
X114030000Y-69330000D02*
X111360000Y-69330000D01*
X114030000Y-107430000D02*
X111360000Y-107430000D01*
X114030000Y-107430000D02*
X114030000Y-69330000D01*
X116440000Y-64120000D02*
X124320000Y-64120000D01*
X116440000Y-74540000D02*
X116440000Y-64120000D01*
X124320000Y-64120000D02*
X124320000Y-74540000D01*
X124320000Y-74540000D02*
X116440000Y-74540000D01*
X126730000Y-69330000D02*
X129400000Y-69330000D01*
X126730000Y-104890000D02*
X126730000Y-69330000D01*
X126730000Y-104890000D02*
X126730000Y-107430000D01*
X126730000Y-104890000D02*
X129400000Y-104890000D01*
X126730000Y-107430000D02*
X129400000Y-107430000D01*
X129400000Y-66660000D02*
X124320000Y-66660000D01*
X129400000Y-104890000D02*
X129400000Y-66660000D01*
X129400000Y-110100000D02*
X129400000Y-107430000D01*
%TO.C,SW3*%
X135236000Y-109196000D02*
X135236000Y-110696000D01*
X136486000Y-113196000D02*
X140986000Y-113196000D01*
X140986000Y-106696000D02*
X136486000Y-106696000D01*
X142236000Y-110696000D02*
X142236000Y-109196000D01*
%TO.C,R1*%
X159493272Y-82164000D02*
G75*
G02*
X159493272Y-80324000I-1453272J920000D01*
G01*
%TO.C,C2*%
X147402000Y-95114000D02*
X147402000Y-95444000D01*
X147402000Y-95114000D02*
X152342000Y-95114000D01*
X147402000Y-97524000D02*
X147402000Y-97854000D01*
X147402000Y-97854000D02*
X152342000Y-97854000D01*
X152342000Y-95114000D02*
X152342000Y-95444000D01*
X152342000Y-97524000D02*
X152342000Y-97854000D01*
%TO.C,U2*%
D12*
X80212500Y-63736500D02*
X108787500Y-63736500D01*
X108787500Y-89263500D01*
X80212500Y-89263500D01*
X80212500Y-63736500D01*
D13*
%TO.C,R2*%
X159639272Y-97150000D02*
G75*
G02*
X159639272Y-95310000I-1453272J920000D01*
G01*
%TO.C,U1*%
D12*
X87880000Y-94880000D02*
X103120000Y-94880000D01*
X103120000Y-107580000D01*
X87880000Y-107580000D01*
X87880000Y-94880000D01*
D13*
%TO.C,PCB-1*%
X152506000Y-69743000D02*
X155596000Y-69743000D01*
X152506170Y-69743000D02*
G75*
G02*
X154051000Y-64193000I1544830J2560000D01*
G01*
X154051000Y-64193000D02*
G75*
G02*
X155595830Y-69743000I0J-2990000D01*
G01*
X156551000Y-67183000D02*
G75*
G02*
X151551000Y-67183000I-2500000J0D01*
G01*
X151551000Y-67183000D02*
G75*
G02*
X156551000Y-67183000I2500000J0D01*
G01*
%TO.C,SW2*%
X134728000Y-97004000D02*
X134728000Y-98504000D01*
X135978000Y-101004000D02*
X140478000Y-101004000D01*
X140478000Y-94504000D02*
X135978000Y-94504000D01*
X141728000Y-98504000D02*
X141728000Y-97004000D01*
%TO.C,R3*%
X159639272Y-110612000D02*
G75*
G02*
X159639272Y-108772000I-1453272J920000D01*
G01*
%TO.C,SW1*%
X135998000Y-82526000D02*
X135998000Y-84026000D01*
X137248000Y-86526000D02*
X141748000Y-86526000D01*
X141748000Y-80026000D02*
X137248000Y-80026000D01*
X142998000Y-84026000D02*
X142998000Y-82526000D01*
%TO.C,R4*%
X146233272Y-66960000D02*
G75*
G02*
X146233272Y-65120000I-1453272J920000D01*
G01*
%TO.C,C1*%
X147402000Y-79874000D02*
X147402000Y-80204000D01*
X147402000Y-79874000D02*
X152342000Y-79874000D01*
X147402000Y-82284000D02*
X147402000Y-82614000D01*
X147402000Y-82614000D02*
X152342000Y-82614000D01*
X152342000Y-79874000D02*
X152342000Y-80204000D01*
X152342000Y-82284000D02*
X152342000Y-82614000D01*
%TO.C,C3*%
X147696000Y-108068000D02*
X147696000Y-108398000D01*
X147696000Y-108068000D02*
X152636000Y-108068000D01*
X147696000Y-110478000D02*
X147696000Y-110808000D01*
X147696000Y-110808000D02*
X152636000Y-110808000D01*
X152636000Y-108068000D02*
X152636000Y-108398000D01*
X152636000Y-110478000D02*
X152636000Y-110808000D01*
%TD*%
M02*
